<svg version="1.1" xmlns="http://www.w3.org/2000/svg" viewBox="0 0 529.75 355.75" width="529.75" height="355.75">
  <!-- svg-source:excalidraw -->
  
  <defs>
    <style class="style-fonts">
      @font-face {
        font-family: "Virgil";
        src: url("https://excalidraw.com/Virgil.woff2");
      }
      @font-face {
        font-family: "Cascadia";
        src: url("https://excalidraw.com/Cascadia.woff2");
      }
    </style>
  </defs>
  <rect x="0" y="0" width="529.75" height="355.75" fill="#ffffff"></rect><g stroke-linecap="round" transform="translate(316.25 10) rotate(0 101.75 167.75)"><path d="M1.69 0.73 L204.39 1.66 L205.46 337.19 L-0.03 335.81" stroke="none" stroke-width="0" fill="#ced4da"></path><path d="M-1.32 -1.37 C69.31 1.41, 138.57 1.1, 204.66 0.77 M-0.58 -0.51 C63.69 -0.81, 127.08 -0.09, 203.67 0.76 M203.34 -0.96 C201.52 127.61, 203.27 252.44, 203.19 335.03 M203.73 0.11 C203.45 105.02, 203.19 209.1, 202.85 336.15 M204.73 335.49 C126.01 337.07, 48.45 336.35, 0.16 335.8 M203.11 336.02 C126.67 335.81, 50.09 336.8, -0.62 335.05 M1.04 334.75 C-2.12 206.66, -0.48 79.37, 0.67 0.17 M-0.35 335.59 C1.5 266.28, 1.79 197.66, 0.18 -0.54" stroke="#495057" stroke-width="4" fill="none"></path></g><g stroke-linecap="round" transform="translate(10 10.25) rotate(0 101.75 167.75)"><path d="M0.73 0.89 L205.16 1.96 L205.19 335.47 L0.31 336.25" stroke="none" stroke-width="0" fill="#ced4da"></path><path d="M-1.37 0.09 C44.96 1.46, 87.98 2.5, 204.27 0.2 M-0.51 0.37 C51.25 1.62, 103.97 1.36, 204.26 0.7 M202.54 -0.66 C204.09 82.06, 202.15 161.62, 203.03 335.67 M203.61 0.38 C202.78 94.31, 202.01 187.7, 204.15 336.06 M203.49 335.86 C159.36 337.41, 114.57 336.92, 0.3 336.89 M204.02 335.53 C151.18 335.03, 100.56 334.09, -0.45 336.24 M-0.75 334.21 C0.34 222.87, 1.61 110.2, 0.17 -1.27 M0.09 335.69 C-1.89 254.73, -1.48 173.18, -0.54 0.57" stroke="#495057" stroke-width="4" fill="none"></path></g><g stroke-linecap="round" transform="translate(42.36700583139037 178.11014886152327) rotate(0 31.632994168609656 38.232323349387)"><path d="M63.27 38.23 C63.27 40.23, 63.13 42.24, 62.88 44.21 C62.62 46.18, 62.23 48.15, 61.72 50.05 C61.21 51.94, 60.57 53.81, 59.82 55.59 C59.07 57.37, 58.19 59.09, 57.22 60.7 C56.26 62.32, 55.17 63.86, 54 65.27 C52.83 66.68, 51.56 67.99, 50.23 69.16 C48.89 70.33, 47.46 71.39, 45.99 72.3 C44.52 73.2, 42.98 73.98, 41.41 74.59 C39.84 75.21, 38.21 75.68, 36.58 75.99 C34.95 76.31, 33.28 76.46, 31.63 76.46 C29.98 76.46, 28.31 76.31, 26.68 75.99 C25.06 75.68, 23.43 75.21, 21.86 74.59 C20.29 73.98, 18.74 73.2, 17.27 72.3 C15.8 71.39, 14.37 70.33, 13.04 69.16 C11.71 67.99, 10.43 66.68, 9.27 65.27 C8.1 63.86, 7.01 62.32, 6.04 60.7 C5.07 59.09, 4.2 57.37, 3.45 55.59 C2.7 53.81, 2.06 51.94, 1.55 50.05 C1.04 48.15, 0.65 46.18, 0.39 44.21 C0.13 42.24, 0 40.23, 0 38.23 C0 36.24, 0.13 34.22, 0.39 32.25 C0.65 30.28, 1.04 28.31, 1.55 26.42 C2.06 24.52, 2.7 22.65, 3.45 20.88 C4.2 19.1, 5.07 17.37, 6.04 15.76 C7.01 14.15, 8.1 12.61, 9.27 11.2 C10.43 9.79, 11.71 8.47, 13.04 7.3 C14.37 6.13, 15.8 5.07, 17.27 4.17 C18.74 3.26, 20.29 2.49, 21.86 1.87 C23.43 1.26, 25.06 0.78, 26.68 0.47 C28.31 0.16, 29.98 0, 31.63 0 C33.28 0, 34.95 0.16, 36.58 0.47 C38.21 0.78, 39.84 1.26, 41.41 1.87 C42.98 2.49, 44.52 3.26, 45.99 4.17 C47.46 5.07, 48.89 6.13, 50.23 7.3 C51.56 8.47, 52.83 9.79, 54 11.2 C55.17 12.61, 56.26 14.15, 57.22 15.76 C58.19 17.37, 59.07 19.1, 59.82 20.88 C60.57 22.65, 61.21 24.52, 61.72 26.42 C62.23 28.31, 62.62 30.28, 62.88 32.25 C63.13 34.22, 63.2 37.24, 63.27 38.23 C63.33 39.23, 63.33 37.24, 63.27 38.23" stroke="transparent" stroke-width="1" fill="none"></path></g><g stroke-linecap="round"><g transform="translate(46.892082687389404 223.4502364790293) rotate(0 26.448638628346117 11.561387201477402)" fill-rule="evenodd"><path d="M0 0 L0.11 9.42 L40.66 29.72 L52.4 21.41 L52.9 12.3 L13.58 -6.6 L0 0" stroke="none" stroke-width="0" fill="#ced4da" fill-rule="evenodd"></path><path d="M0 0 C0.03 2.13, 0.05 4.27, 0.11 9.42 M0 0 C0.03 2.21, 0.05 4.43, 0.11 9.42 M0.11 9.42 C11.79 15.27, 23.47 21.11, 40.66 29.72 M0.11 9.42 C13.66 16.2, 27.2 22.99, 40.66 29.72 M40.66 29.72 C44.99 26.65, 49.32 23.59, 52.4 21.41 M40.66 29.72 C43.67 27.59, 46.68 25.45, 52.4 21.41 M52.4 21.41 C52.59 17.97, 52.77 14.53, 52.9 12.3 M52.4 21.41 C52.52 19.15, 52.65 16.89, 52.9 12.3 M52.9 12.3 C37.83 5.06, 22.76 -2.18, 13.58 -6.6 M52.9 12.3 C38.99 5.62, 25.09 -1.06, 13.58 -6.6 M13.58 -6.6 C9.59 -4.66, 5.61 -2.73, 0 0 M13.58 -6.6 C8.88 -4.32, 4.19 -2.03, 0 0 M0 0 C0 0, 0 0, 0 0 M0 0 C0 0, 0 0, 0 0" stroke="#495057" stroke-width="2" fill="none"></path></g></g><mask></mask><g stroke-linecap="round"><g transform="translate(47.85878937266108 223.75036278147002) rotate(0 25.61716812233962 10.19177464623121)"><path d="M0 0 C8.73 4.56, 17.46 9.11, 39.05 20.38 M0 0 C9.5 4.96, 19 9.92, 39.05 20.38 M39.05 20.38 C41.83 18.44, 44.62 16.49, 51.23 11.87 M39.05 20.38 C42.9 17.69, 46.75 15, 51.23 11.87" stroke="#495057" stroke-width="2" fill="none"></path></g></g><mask></mask><g stroke-linecap="round"><g transform="translate(87.37337744287765 252.83330457392833) rotate(0 -0.08865561764929453 -4.015930478814937)"><path d="M0 0 C-0.05 -2.45, -0.11 -4.9, -0.18 -8.03 M0 0 C-0.06 -2.74, -0.12 -5.48, -0.18 -8.03" stroke="#495057" stroke-width="2" fill="none"></path></g></g><mask></mask><g stroke-linecap="round"><g transform="translate(63.85562972681038 182.58908010208108) rotate(0 18.915880487914876 25.701680357781697)" fill-rule="evenodd"><path d="M0 0 L17.29 2.31 L27.29 6.68 L35.48 12.76 L38.11 20.59 L38.32 35.91 L36.94 42.15 L33.09 47.71 L28.44 51.04 L25.26 51.07 L20.7 46.63 L10.5 33.98 L1.16 19.81 L-0.4 14.55 L0.25 3.22" stroke="none" stroke-width="0" fill="#ced4da" fill-rule="evenodd"></path><path d="M0 0 C2.88 0.38, 11.38 0.18, 17.29 2.31 C23.21 4.44, 31.98 8.35, 35.48 12.76 C38.98 17.17, 38.06 23.88, 38.3 28.78 C38.54 33.67, 38.58 38.44, 36.94 42.15 C35.29 45.86, 31.14 50.29, 28.44 51.04 C25.73 51.79, 25.25 51.83, 20.7 46.63 C16.16 41.42, 4.57 27.04, 1.16 19.81 C-2.25 12.57, 0.4 5.98, 0.25 3.22 M0 0 C2.88 0.38, 11.38 0.18, 17.29 2.31 C23.21 4.44, 31.98 8.35, 35.48 12.76 C38.98 17.17, 38.06 23.88, 38.3 28.78 C38.54 33.67, 38.58 38.44, 36.94 42.15 C35.29 45.86, 31.14 50.29, 28.44 51.04 C25.73 51.79, 25.25 51.83, 20.7 46.63 C16.16 41.42, 4.57 27.04, 1.16 19.81 C-2.25 12.57, 0.4 5.98, 0.25 3.22" stroke="#495057" stroke-width="2" fill="none"></path></g></g><mask></mask><g stroke-linecap="round"><g transform="translate(50.46044963808282 208.27915063071498) rotate(0 23.935218500353898 1.0837497832572467)" fill-rule="evenodd"><path d="M0 0 L0.13 5.97 L1.16 9.94 L4.31 13.76 L10.96 17.89 L29.51 26.28 L36.67 28.29 L40.93 28.17 L43.58 26.52 L46.49 19.51 L47.86 5.83 L46.87 -7.86 L45.62 -11.37 L43.87 -13.42 L32.44 -19.37 L18.9 -24.74 L13.34 -26.08 L6.16 -25.52 L1.8 -21.15 L0.63 -16.51 L0 0" stroke="none" stroke-width="0" fill="#ced4da" fill-rule="evenodd"></path><path d="M0 0 C0.72 2.29, -1.8 9.05, 4.31 13.76 C10.42 18.48, 29.64 27.33, 36.67 28.29 C43.7 29.25, 44.79 25.53, 46.49 19.51 C48.19 13.48, 48.32 -1.82, 46.87 -7.86 C45.42 -13.9, 43.36 -13.7, 37.77 -16.74 C32.18 -19.77, 19.34 -25.34, 13.34 -26.08 C7.35 -26.82, 4.03 -25.5, 1.8 -21.15 C-0.42 -16.81, 0.3 -3.53, 0 0 M0 0 C0.72 2.29, -1.8 9.05, 4.31 13.76 C10.42 18.48, 29.64 27.33, 36.67 28.29 C43.7 29.25, 44.79 25.53, 46.49 19.51 C48.19 13.48, 48.32 -1.82, 46.87 -7.86 C45.42 -13.9, 43.36 -13.7, 37.77 -16.74 C32.18 -19.77, 19.34 -25.34, 13.34 -26.08 C7.35 -26.82, 4.03 -25.5, 1.8 -21.15 C-0.42 -16.81, 0.3 -3.53, 0 0" stroke="#495057" stroke-width="2" fill="none"></path></g></g><mask></mask><g stroke-linecap="round"><g transform="translate(53.64226781990084 207.83377268548168) rotate(0 20.42976942490762 0.9579109377231418)" fill-rule="evenodd"><path d="M0 0 L1.08 8.37 L3.62 11.57 L16.04 18.6 L29.29 23.59 L36.07 23.37 L39.65 18.69 L40.86 7.06 L39.77 -5.08 L37.05 -10.57 L31.74 -14.07 L15.88 -20.83 L11.21 -21.92 L5.18 -21.45 L1.52 -17.78 L0.53 -13.88 L0 0" stroke="none" stroke-width="0" fill="#343a40" fill-rule="evenodd"></path><path d="M0 0 C0.6 1.93, -1.26 7.63, 3.62 11.57 C8.51 15.5, 23.29 22.4, 29.29 23.59 C35.3 24.77, 37.9 23.46, 39.65 18.69 C41.39 13.91, 41.09 0.38, 39.77 -5.08 C38.46 -10.53, 36.5 -11.26, 31.74 -14.07 C26.98 -16.87, 16.25 -21.3, 11.21 -21.92 C6.17 -22.54, 3.38 -21.43, 1.52 -17.78 C-0.35 -14.12, 0.25 -2.96, 0 0 M0 0 C0.6 1.93, -1.26 7.63, 3.62 11.57 C8.51 15.5, 23.29 22.4, 29.29 23.59 C35.3 24.77, 37.9 23.46, 39.65 18.69 C41.39 13.91, 41.09 0.38, 39.77 -5.08 C38.46 -10.53, 36.5 -11.26, 31.74 -14.07 C26.98 -16.87, 16.25 -21.3, 11.21 -21.92 C6.17 -22.54, 3.38 -21.43, 1.52 -17.78 C-0.35 -14.12, 0.25 -2.96, 0 0" stroke="#495057" stroke-width="2" fill="none"></path></g></g><mask></mask><g stroke-linecap="round"><g transform="translate(75.91599775348527 242.08523048746213) rotate(0 4.027777777777828 3.101851851851734)" fill-rule="evenodd"><path d="M0 0 L8.02 4.03 L8.06 6.2 L0.15 2.37 L0 0" stroke="none" stroke-width="0" fill="#495057" fill-rule="evenodd"></path><path d="M0 0 C2.93 1.47, 5.85 2.94, 8.02 4.03 M0 0 C2.56 1.29, 5.12 2.57, 8.02 4.03 M8.02 4.03 C8.03 4.63, 8.04 5.24, 8.06 6.2 M8.02 4.03 C8.03 4.48, 8.04 4.92, 8.06 6.2 M8.06 6.2 C5.61 5.02, 3.17 3.83, 0.15 2.37 M8.06 6.2 C6.23 5.32, 4.41 4.43, 0.15 2.37 M0.15 2.37 C0.1 1.54, 0.05 0.71, 0 0 M0.15 2.37 C0.1 1.59, 0.05 0.82, 0 0 M0 0 C0 0, 0 0, 0 0 M0 0 C0 0, 0 0, 0 0" stroke="#495057" stroke-width="1" fill="none"></path></g></g><mask></mask><g stroke-linecap="round" transform="translate(416.3670058313903 186.11014886152327) rotate(0 31.632994168609628 38.232323349387)"><path d="M63.27 38.23 C63.27 40.23, 63.13 42.24, 62.88 44.21 C62.62 46.18, 62.23 48.15, 61.72 50.05 C61.21 51.94, 60.57 53.81, 59.82 55.59 C59.07 57.37, 58.19 59.09, 57.22 60.7 C56.26 62.32, 55.17 63.86, 54 65.27 C52.83 66.68, 51.56 67.99, 50.23 69.16 C48.89 70.33, 47.46 71.39, 45.99 72.3 C44.52 73.2, 42.98 73.98, 41.41 74.59 C39.84 75.21, 38.21 75.68, 36.58 75.99 C34.95 76.31, 33.28 76.46, 31.63 76.46 C29.98 76.46, 28.31 76.31, 26.68 75.99 C25.06 75.68, 23.43 75.21, 21.86 74.59 C20.29 73.98, 18.74 73.2, 17.27 72.3 C15.8 71.39, 14.37 70.33, 13.04 69.16 C11.71 67.99, 10.43 66.68, 9.27 65.27 C8.1 63.86, 7.01 62.32, 6.04 60.7 C5.07 59.09, 4.2 57.37, 3.45 55.59 C2.7 53.81, 2.06 51.94, 1.55 50.05 C1.04 48.15, 0.65 46.18, 0.39 44.21 C0.13 42.24, 0 40.23, 0 38.23 C0 36.24, 0.13 34.22, 0.39 32.25 C0.65 30.28, 1.04 28.31, 1.55 26.42 C2.06 24.52, 2.7 22.65, 3.45 20.88 C4.2 19.1, 5.07 17.37, 6.04 15.76 C7.01 14.15, 8.1 12.61, 9.27 11.2 C10.43 9.79, 11.71 8.47, 13.04 7.3 C14.37 6.13, 15.8 5.07, 17.27 4.17 C18.74 3.26, 20.29 2.49, 21.86 1.87 C23.43 1.26, 25.06 0.78, 26.68 0.47 C28.31 0.16, 29.98 0, 31.63 0 C33.28 0, 34.95 0.16, 36.58 0.47 C38.21 0.78, 39.84 1.26, 41.41 1.87 C42.98 2.49, 44.52 3.26, 45.99 4.17 C47.46 5.07, 48.89 6.13, 50.23 7.3 C51.56 8.47, 52.83 9.79, 54 11.2 C55.17 12.61, 56.26 14.15, 57.22 15.76 C58.19 17.37, 59.07 19.1, 59.82 20.88 C60.57 22.65, 61.21 24.52, 61.72 26.42 C62.23 28.31, 62.62 30.28, 62.88 32.25 C63.13 34.22, 63.2 37.24, 63.27 38.23 C63.33 39.23, 63.33 37.24, 63.27 38.23" stroke="transparent" stroke-width="1" fill="none"></path></g><g stroke-linecap="round"><g transform="translate(420.89208268738935 231.4502364790293) rotate(0 26.448638628346146 11.561387201477402)" fill-rule="evenodd"><path d="M0 0 L0.11 9.42 L40.66 29.72 L52.4 21.41 L52.9 12.3 L13.58 -6.6 L0 0" stroke="none" stroke-width="0" fill="#ced4da" fill-rule="evenodd"></path><path d="M0 0 C0.04 2.93, 0.07 5.86, 0.11 9.42 M0 0 C0.04 3.56, 0.09 7.12, 0.11 9.42 M0.11 9.42 C12.78 15.77, 25.45 22.11, 40.66 29.72 M0.11 9.42 C15.62 17.19, 31.13 24.95, 40.66 29.72 M40.66 29.72 C45.09 26.58, 49.53 23.44, 52.4 21.41 M40.66 29.72 C45.16 26.53, 49.65 23.35, 52.4 21.41 M52.4 21.41 C52.5 19.53, 52.6 17.66, 52.9 12.3 M52.4 21.41 C52.59 17.9, 52.78 14.4, 52.9 12.3 M52.9 12.3 C38.85 5.55, 24.8 -1.2, 13.58 -6.6 M52.9 12.3 C41.44 6.79, 29.98 1.28, 13.58 -6.6 M13.58 -6.6 C9.1 -4.42, 4.63 -2.25, 0 0 M13.58 -6.6 C10.38 -5.04, 7.18 -3.49, 0 0 M0 0 C0 0, 0 0, 0 0 M0 0 C0 0, 0 0, 0 0" stroke="#495057" stroke-width="2" fill="none"></path></g></g><mask></mask><g stroke-linecap="round"><g transform="translate(421.858789372661 231.75036278147002) rotate(0 25.61716812233965 10.19177464623121)"><path d="M0 0 C9.98 5.21, 19.96 10.42, 39.05 20.38 M0 0 C9.42 4.92, 18.85 9.84, 39.05 20.38 M39.05 20.38 C42.47 17.99, 45.89 15.61, 51.23 11.87 M39.05 20.38 C41.69 18.54, 44.33 16.7, 51.23 11.87" stroke="#495057" stroke-width="2" fill="none"></path></g></g><mask></mask><g stroke-linecap="round"><g transform="translate(461.37337744287765 260.83330457392833) rotate(0 -0.08865561764929453 -4.015930478814937)"><path d="M0 0 C-0.05 -2.43, -0.11 -4.85, -0.18 -8.03 M0 0 C-0.05 -2.32, -0.1 -4.64, -0.18 -8.03" stroke="#495057" stroke-width="2" fill="none"></path></g></g><mask></mask><g stroke-linecap="round"><g transform="translate(437.8556297268103 190.58908010208108) rotate(0 18.915880487914876 25.701680357781697)" fill-rule="evenodd"><path d="M0 0 L17.29 2.31 L27.29 6.68 L35.48 12.76 L38.11 20.59 L38.32 35.91 L36.94 42.15 L33.09 47.71 L28.44 51.04 L25.26 51.07 L20.7 46.63 L10.5 33.98 L1.16 19.81 L-0.4 14.55 L0.25 3.22" stroke="none" stroke-width="0" fill="#ced4da" fill-rule="evenodd"></path><path d="M0 0 C2.88 0.38, 11.38 0.18, 17.29 2.31 C23.21 4.44, 31.98 8.35, 35.48 12.76 C38.98 17.17, 38.06 23.88, 38.3 28.78 C38.54 33.67, 38.58 38.44, 36.94 42.15 C35.29 45.86, 31.14 50.29, 28.44 51.04 C25.73 51.79, 25.25 51.83, 20.7 46.63 C16.16 41.42, 4.57 27.04, 1.16 19.81 C-2.25 12.57, 0.4 5.98, 0.25 3.22 M0 0 C2.88 0.38, 11.38 0.18, 17.29 2.31 C23.21 4.44, 31.98 8.35, 35.48 12.76 C38.98 17.17, 38.06 23.88, 38.3 28.78 C38.54 33.67, 38.58 38.44, 36.94 42.15 C35.29 45.86, 31.14 50.29, 28.44 51.04 C25.73 51.79, 25.25 51.83, 20.7 46.63 C16.16 41.42, 4.57 27.04, 1.16 19.81 C-2.25 12.57, 0.4 5.98, 0.25 3.22" stroke="#495057" stroke-width="2" fill="none"></path></g></g><mask></mask><g stroke-linecap="round"><g transform="translate(424.46044963808276 216.27915063071498) rotate(0 23.935218500353926 1.0837497832572467)" fill-rule="evenodd"><path d="M0 0 L0.13 5.97 L1.16 9.94 L4.31 13.76 L10.96 17.89 L29.51 26.28 L36.67 28.29 L40.93 28.17 L43.58 26.52 L46.49 19.51 L47.86 5.83 L46.87 -7.86 L45.62 -11.37 L43.87 -13.42 L32.44 -19.37 L18.9 -24.74 L13.34 -26.08 L6.16 -25.52 L1.8 -21.15 L0.63 -16.51 L0 0" stroke="none" stroke-width="0" fill="#ced4da" fill-rule="evenodd"></path><path d="M0 0 C0.72 2.29, -1.8 9.05, 4.31 13.76 C10.42 18.48, 29.64 27.33, 36.67 28.29 C43.7 29.25, 44.79 25.53, 46.49 19.51 C48.19 13.48, 48.32 -1.82, 46.87 -7.86 C45.42 -13.9, 43.36 -13.7, 37.77 -16.74 C32.18 -19.77, 19.34 -25.34, 13.34 -26.08 C7.35 -26.82, 4.03 -25.5, 1.8 -21.15 C-0.42 -16.81, 0.3 -3.53, 0 0 M0 0 C0.72 2.29, -1.8 9.05, 4.31 13.76 C10.42 18.48, 29.64 27.33, 36.67 28.29 C43.7 29.25, 44.79 25.53, 46.49 19.51 C48.19 13.48, 48.32 -1.82, 46.87 -7.86 C45.42 -13.9, 43.36 -13.7, 37.77 -16.74 C32.18 -19.77, 19.34 -25.34, 13.34 -26.08 C7.35 -26.82, 4.03 -25.5, 1.8 -21.15 C-0.42 -16.81, 0.3 -3.53, 0 0" stroke="#495057" stroke-width="2" fill="none"></path></g></g><mask></mask><g stroke-linecap="round"><g transform="translate(427.6422678199008 215.83377268548168) rotate(0 20.42976942490759 0.9579109377231418)" fill-rule="evenodd"><path d="M0 0 L1.08 8.37 L3.62 11.57 L16.04 18.6 L29.29 23.59 L36.07 23.37 L39.65 18.69 L40.86 7.06 L39.77 -5.08 L37.05 -10.57 L31.74 -14.07 L15.88 -20.83 L11.21 -21.92 L5.18 -21.45 L1.52 -17.78 L0.53 -13.88 L0 0" stroke="none" stroke-width="0" fill="#343a40" fill-rule="evenodd"></path><path d="M0 0 C0.6 1.93, -1.26 7.63, 3.62 11.57 C8.51 15.5, 23.29 22.4, 29.29 23.59 C35.3 24.77, 37.9 23.46, 39.65 18.69 C41.39 13.91, 41.09 0.38, 39.77 -5.08 C38.46 -10.53, 36.5 -11.26, 31.74 -14.07 C26.98 -16.87, 16.25 -21.3, 11.21 -21.92 C6.17 -22.54, 3.38 -21.43, 1.52 -17.78 C-0.35 -14.12, 0.25 -2.96, 0 0 M0 0 C0.6 1.93, -1.26 7.63, 3.62 11.57 C8.51 15.5, 23.29 22.4, 29.29 23.59 C35.3 24.77, 37.9 23.46, 39.65 18.69 C41.39 13.91, 41.09 0.38, 39.77 -5.08 C38.46 -10.53, 36.5 -11.26, 31.74 -14.07 C26.98 -16.87, 16.25 -21.3, 11.21 -21.92 C6.17 -22.54, 3.38 -21.43, 1.52 -17.78 C-0.35 -14.12, 0.25 -2.96, 0 0" stroke="#495057" stroke-width="2" fill="none"></path></g></g><mask></mask><g stroke-linecap="round"><g transform="translate(449.91599775348527 250.08523048746213) rotate(0 4.027777777777828 3.101851851851734)" fill-rule="evenodd"><path d="M0 0 L8.02 4.03 L8.06 6.2 L0.15 2.37 L0 0" stroke="none" stroke-width="0" fill="#495057" fill-rule="evenodd"></path><path d="M0 0 C1.72 0.86, 3.44 1.73, 8.02 4.03 M0 0 C2.91 1.46, 5.82 2.92, 8.02 4.03 M8.02 4.03 C8.03 4.74, 8.04 5.45, 8.06 6.2 M8.02 4.03 C8.03 4.68, 8.04 5.32, 8.06 6.2 M8.06 6.2 C6.31 5.36, 4.57 4.51, 0.15 2.37 M8.06 6.2 C5.85 5.13, 3.64 4.06, 0.15 2.37 M0.15 2.37 C0.11 1.72, 0.07 1.07, 0 0 M0.15 2.37 C0.11 1.66, 0.06 0.95, 0 0 M0 0 C0 0, 0 0, 0 0 M0 0 C0 0, 0 0, 0 0" stroke="#495057" stroke-width="1" fill="none"></path></g></g><mask></mask><g stroke-linecap="round" transform="translate(120.42362787733191 133.63426638229151) rotate(0 22 77.46787644381496)"><path d="M1.71 1.56 C14.17 -0.31, 30.44 -1.51, 43.03 1.25 M-0.35 0.12 C16.58 -0.3, 33.89 0.26, 44.57 0.28 M45.92 1.65 C41 51.25, 44.05 98.88, 44.4 154.86 M44.17 0.78 C42.86 52.71, 42.89 104.88, 44.04 154.14 M42.99 156.6 C29.99 154.09, 16.05 153.52, -1.91 154.53 M44.13 153.99 C29.07 155.91, 14.78 155.28, 0.29 154.66 M-1.6 156.62 C0.23 98.23, 1.16 41.7, 1.69 -0.03 M0.2 155.51 C-0.18 106.97, -0.04 56.61, 0.56 -1" stroke="#000000" stroke-width="1" fill="none"></path></g><g stroke-linecap="round"><g transform="translate(120.70309179187393 167.02981286057297) rotate(0 22.53448082503286 -0.10101145803929512)"><path d="M1.03 0.93 C8.14 0.71, 35.6 -0.67, 42.62 -1.14 M0.11 0.38 C7.62 0.32, 37.92 0.56, 44.96 0.33" stroke="#000000" stroke-width="1" fill="none"></path></g></g><mask></mask><g stroke-linecap="round"><g transform="translate(119.70309179187393 201.1021428261064) rotate(0 22.82715932596369 0.229527669167652)"><path d="M0.93 -0.7 C8.51 -1.07, 38.35 -1, 45.69 -1.14 M-0.03 1.54 C7.35 1.89, 36.76 0.67, 44.67 0.32" stroke="#000000" stroke-width="1" fill="none"></path></g></g><mask></mask><g stroke-linecap="round"><g transform="translate(119.70309179187393 232.83608104801397) rotate(0 22.488457918571157 -0.9973496347665787)"><path d="M-0.7 -0.14 C6.74 -0.6, 38.02 -1.84, 45.68 -1.86 M1.13 -1.25 C8.31 -1.67, 37.48 -0.61, 44.66 -0.77" stroke="#000000" stroke-width="1" fill="none"></path></g></g><mask></mask><g stroke-linecap="round"><g transform="translate(131.77364866297876 259.647668518741) rotate(0 -0.7869514666871851 -13.900384800285877)"><path d="M-0.14 -0.14 C-0.61 -4.64, -1.89 -23.33, -1.92 -27.66 M-1.67 -1.27 C-1.85 -5.54, 0.18 -21.98, 0.34 -26.43" stroke="#000000" stroke-width="1" fill="none"></path></g></g><mask></mask><g stroke-linecap="round"><g transform="translate(140.7164939283232 199.58874068965707) rotate(0 0.4607046390710252 16.312157642233245)"><path d="M-0.14 -0.86 C0.01 4.74, -0.12 28.05, 0.2 33.48 M-1.68 1.31 C-1.07 6.58, 2.07 26.54, 2.6 31.75" stroke="#000000" stroke-width="1" fill="none"></path></g></g><mask></mask><g stroke-linecap="round"><g transform="translate(152.78705079942813 164.80927677511494) rotate(0 -0.3174476290109851 18.562562506782996)"><path d="M-0.86 -0.58 C-1 5.72, -0.67 31.54, -0.97 37.71 M0.89 1.72 C0.67 7.72, -1.33 30.11, -1.53 36.1" stroke="#000000" stroke-width="1" fill="none"></path></g></g><mask></mask><g stroke-linecap="round"><g transform="translate(141.6120404066047 164.97581300528486) rotate(0 0.37103196629294644 -14.647354911417551)"><path d="M-0.58 0.75 C-0.41 -4.12, 0.87 -25, 0.92 -30.04 M1.31 0.1 C1.43 -4.57, 0.91 -24.27, 0.48 -29.02" stroke="#000000" stroke-width="1" fill="none"></path></g></g><mask></mask><g stroke-linecap="round"><g transform="translate(165.4959578428652 259.31420474891075) rotate(0 -21.721457971379778 1.6480847580517093)"><path d="M0.75 0.98 C-6.47 1.32, -36.79 1.31, -44.19 1.46 M-0.32 0.44 C-7.1 1.01, -34.61 2.38, -41.99 2.85" stroke="#000000" stroke-width="1" fill="none"></path></g></g><mask></mask><g stroke-linecap="round"><g transform="translate(132.56651471397004 168.53474083436885) rotate(0 -0.30509618823629125 16.580939705429785)"><path d="M0.98 -0.97 C0.99 4.37, -0.32 27.15, -0.49 32.82 M0.03 1.13 C-0.09 6.58, -1.45 28.62, -1.59 34.13" stroke="#000000" stroke-width="1" fill="none"></path></g></g><mask></mask><g stroke-linecap="round"><g transform="translate(154.36292442956608 259.3669353239605) rotate(0 -0.9627830605698477 -13.598072235436035)"><path d="M-0.97 -0.27 C-1.34 -4.92, -1.42 -22.38, -1.48 -26.92 M0.72 -1.46 C0.09 -5.98, -2.16 -21.14, -2.65 -25.31" stroke="#000000" stroke-width="1" fill="none"></path></g></g><mask></mask><g stroke-linecap="round"><g transform="translate(145.33843282576322 286.1955485608888) rotate(0 0.0025354286538572524 -13.861158584208084)"><path d="M-0.27 -0.42 C-0.59 -4.81, -0.7 -22.93, -0.91 -27.3 M1.78 -1.68 C1.24 -5.8, -1.05 -21.37, -1.78 -25.89" stroke="#000000" stroke-width="1" fill="none"></path></g></g><mask></mask><g stroke-linecap="round" transform="translate(363.96328704876237 142.13426638229151) rotate(0 22 77.46787644381496)"><path d="M0.25 -0.39 C8.83 0.84, 19.6 1.29, 44.55 0.38 M0.83 -0.83 C10.33 0.27, 18.85 -0.22, 43.96 0.37 M45.55 -0.93 C45.27 38.83, 45.3 79.47, 42.41 155.64 M44.83 0.37 C42.66 52.01, 42.37 101.53, 43.8 155.2 M42.12 153.78 C29.03 153.95, 11.32 155.57, -0.54 156.37 M44.84 155.3 C29.81 155.42, 15.7 155.43, -0.02 155.09 M1.15 155.74 C1.4 103.72, -1.62 51.47, -1.99 1.09 M-0.09 155.57 C-0.85 112.8, -0.26 69.82, 0.66 0.56" stroke="#000000" stroke-width="1" fill="none"></path></g><g stroke-linecap="round"><g transform="translate(364.2427509633044 175.52981286057303) rotate(0 20.806166742405708 -1.3649776529567248)"><path d="M0.15 -0.23 C7.34 -0.26, 35.61 -0.58, 42.84 -0.59 M-1.23 -1.4 C5.78 -1.76, 34.29 -2.35, 41.64 -2.5" stroke="#000000" stroke-width="1" fill="none"></path></g></g><mask></mask><g stroke-linecap="round"><g transform="translate(363.2427509633044 209.60214282610633) rotate(0 22.21106722343609 -1.7110503779138924)"><path d="M-0.23 -0.48 C7.54 -0.64, 38.44 -0.78, 46.23 -0.81 M-1.81 -1.78 C5.88 -2.34, 37.52 -3.26, 45.5 -2.83" stroke="#000000" stroke-width="1" fill="none"></path></g></g><mask></mask><g stroke-linecap="round"><g transform="translate(363.2427509633044 241.33608104801402) rotate(0 22.76829972307553 -0.8430628549437245)"><path d="M-0.48 0.41 C7.16 0.4, 38.25 -0.12, 46.02 -0.32 M1.47 -0.42 C8.96 -0.76, 37.82 -2.26, 45.17 -2.08" stroke="#000000" stroke-width="1" fill="none"></path></g></g><mask></mask><g stroke-linecap="round"><g transform="translate(375.3133078344092 268.147668518741) rotate(0 -0.2776728343754371 -14.248934261506292)"><path d="M0.41 0.19 C0.39 -4.18, -0.17 -22.03, -0.38 -26.74 M-0.83 -0.75 C-0.94 -5.46, -0.86 -24.26, -0.96 -28.69" stroke="#000000" stroke-width="1" fill="none"></path></g></g><mask></mask><g stroke-linecap="round"><g transform="translate(384.25615309975365 208.08874068965707) rotate(0 -0.024548846096081434 16.480249829201057)"><path d="M0.19 0.68 C0.46 6.11, 1.18 27.81, 1.11 32.96 M-1.16 0 C-0.99 5, -0.21 25.58, 0.33 30.96" stroke="#000000" stroke-width="1" fill="none"></path></g></g><mask></mask><g stroke-linecap="round"><g transform="translate(396.3267099708585 173.30927677511494) rotate(0 -0.8172956640680695 18.0805194575872)"><path d="M0.68 0.33 C0.37 6.25, -0.9 29.45, -1.49 35.71 M-0.42 -0.54 C-0.91 5.47, -2.29 30.59, -2.32 36.7" stroke="#000000" stroke-width="1" fill="none"></path></g></g><mask></mask><g stroke-linecap="round"><g transform="translate(385.15169957803505 173.47581300528492) rotate(0 -0.005482687828020971 -14.998031066507906)"><path d="M0.33 0.23 C0.12 -4.92, -1.21 -25.51, -1.09 -30.23 M-0.96 -0.7 C-0.82 -5.8, 0.77 -24.43, 1.08 -29.29" stroke="#000000" stroke-width="1" fill="none"></path></g></g><mask></mask><g stroke-linecap="round"><g transform="translate(409.03561701429567 267.81420474891075) rotate(0 -22.072134126470075 0.9292408400653187)"><path d="M0.23 -1.03 C-7.28 -0.6, -37.3 2.59, -44.37 2.89 M-1.11 1.05 C-8.33 1.14, -35.37 1.29, -42.27 1.37" stroke="#000000" stroke-width="1" fill="none"></path></g></g><mask></mask><g stroke-linecap="round"><g transform="translate(376.1061738854005 177.03474083436885) rotate(0 -0.04779310654623714 16.535605060446244)"><path d="M-1.03 -1.15 C-0.93 4.51, 0.96 28.31, 0.93 34.22 M0.63 0.86 C0.65 6.18, 0.5 27.34, 0.59 32.62" stroke="#000000" stroke-width="1" fill="none"></path></g></g><mask></mask><g stroke-linecap="round"><g transform="translate(397.9025836009964 267.8669353239605) rotate(0 -0.35689186026530706 -13.460247032494152)"><path d="M-1.15 1.15 C-1.2 -3.35, -0.26 -23.51, -0.07 -28.07 M0.44 0.71 C0.3 -3.59, -0.39 -22.25, -0.5 -27.06" stroke="#000000" stroke-width="1" fill="none"></path></g></g><mask></mask><g stroke-linecap="round"><g transform="translate(388.87809199719356 294.69554856088894) rotate(0 -0.4535459642695514 -13.278595708986614)"><path d="M1.15 0.99 C0.98 -3.15, -1.83 -21.31, -2.06 -25.99 M0.3 0.47 C0.58 -3.88, 0.27 -23.18, 0.13 -27.55" stroke="#000000" stroke-width="1" fill="none"></path></g></g><mask></mask><g stroke-linecap="round"><g transform="translate(417.5 196.6021428261065) rotate(0 -120.40516608364413 0.4124554067849999)"><path d="M0.99 -1 C-39.05 -0.89, -200.84 1.45, -241.42 1.83 M0.05 1.09 C-39.96 1.38, -201.25 -0.13, -241.8 0.14" stroke="#c92a2a" stroke-width="1" fill="none"></path></g><g transform="translate(417.5 196.6021428261065) rotate(0 -120.40516608364413 0.4124554067849999)"><path d="M-239.96 -1.44 L-229.48 -7.19 L-226.52 7.04 L-242.85 0.87" stroke="none" stroke-width="0" fill="#c92a2a" fill-rule="evenodd"></path><path d="M-243.05 1.49 C-238.05 -1.27, -236.01 -2.6, -227.64 -6.83 M-242.15 0.56 C-237.93 -1.48, -233.37 -4.47, -227.93 -5.94 M-227.73 -6.51 C-227.28 -3.95, -229.48 -0.58, -227.89 7.45 M-228.56 -5.69 C-228.52 -1.66, -228.01 2.52, -227.77 6.71 M-227.67 7.17 C-231.37 6.01, -235.79 2.43, -241.57 0.7 M-227.92 7.17 C-232.23 4.05, -236.61 1.71, -241.39 -0.08 M-241.8 0.14 C-241.8 0.14, -241.8 0.14, -241.8 0.14 M-241.8 0.14 C-241.8 0.14, -241.8 0.14, -241.8 0.14" stroke="#c92a2a" stroke-width="1" fill="none"></path></g></g><mask></mask><g stroke-linecap="round"><g transform="translate(171.5 187.6021428261065) rotate(0 -5.757097601136195 11.811695554843169)"><path d="M-1 1.08 C-3.14 4.5, -9.8 18.09, -11.67 21.49 M0.67 0.6 C-1.65 4.13, -9.93 19.33, -12.19 23.02" stroke="#c92a2a" stroke-width="1" fill="none"></path></g></g><mask></mask><g stroke-linecap="round"><g transform="translate(157 188.6021428261065) rotate(0 9.838850596030284 10.227120975847356)"><path d="M1.08 0.83 C4.16 4.37, 16.43 16.97, 19.49 20.24 M0.19 0.21 C3.03 3.46, 15.46 15.22, 18.54 18.24" stroke="#c92a2a" stroke-width="1" fill="none"></path></g></g><mask></mask><g stroke-linecap="round"><g transform="translate(111.19890183096754 239.1720813741648) rotate(0 121.27035358384717 0.7051671034004414)"><path d="M0.83 -0.01 C41.45 -0.03, 202.39 0.88, 242.74 0.96 M-0.2 -1.06 C40.37 -0.37, 201.48 2.04, 241.92 2.47" stroke="#c92a2a" stroke-width="1" fill="none"></path></g><g transform="translate(111.19890183096754 239.1720813741648) rotate(0 121.27035358384717 0.7051671034004414)"><path d="M240.9 4.17 L228.77 7.58 L229.14 -5.16 L241.16 4.14" stroke="none" stroke-width="0" fill="#c92a2a" fill-rule="evenodd"></path><path d="M241.91 2.77 C238.96 4.45, 235.39 5.37, 228.49 9.8 M242.35 2.5 C237.89 4.24, 235.25 5.02, 227.86 9.26 M227.53 7.42 C228.07 4.69, 229.33 0.72, 228.57 -5.24 M228.32 8.81 C228.01 6.02, 228.43 2.67, 227.9 -3.51 M229.88 -2.78 C232.96 -1.73, 238.1 0.58, 242.22 3.33 M227.94 -3.63 C232.31 -1.49, 237.44 0.66, 242.44 2.41 M241.92 2.47 C241.92 2.47, 241.92 2.47, 241.92 2.47 M241.92 2.47 C241.92 2.47, 241.92 2.47, 241.92 2.47" stroke="#c92a2a" stroke-width="1" fill="none"></path></g></g><mask></mask><g stroke-linecap="round"><g transform="translate(367.09201037394814 227.66330768147685) rotate(0 -6.76213122255632 10.63002569496166)"><path d="M-0.01 0.24 C-2.28 3.76, -10.37 18.38, -12.54 21.94 M-1.47 -0.68 C-4 2.4, -11.42 16.1, -13.51 20.05" stroke="#c92a2a" stroke-width="1" fill="none"></path></g></g><mask></mask><g stroke-linecap="round"><g transform="translate(352.59201037394814 228.66330768147685) rotate(0 9.423258302961472 9.81240749656223)"><path d="M0.24 -0.04 C3.43 3.2, 16.71 16.1, 19.94 19.47 M-1.09 -1.11 C1.9 2.29, 15.89 16.95, 19.22 20.74" stroke="#c92a2a" stroke-width="1" fill="none"></path></g></g><mask></mask><g stroke-linecap="round"><g transform="translate(364 196.25) rotate(0 26.474774861414915 0.4145590212478112)"><path d="M-0.04 0.44 C9.04 0.33, 45.27 -0.39, 54.47 -0.39 M-1.53 -0.38 C7.35 -0.29, 43.91 1.38, 53.25 1.21" stroke="#2b8a3e" stroke-width="4" fill="none"></path></g></g><mask></mask><g stroke-linecap="round"><g transform="translate(109.94013476821601 239.81023844964795) rotate(0 27.16056796744931 -0.25265504301526676)"><path d="M0.44 -0.53 C9.58 -0.57, 45.86 -0.21, 55.11 -0.3 M-0.79 1.81 C8.19 1.39, 44.81 -2.01, 54.22 -2.32" stroke="#2b8a3e" stroke-width="4" fill="none"></path></g></g><mask></mask><g transform="translate(69 35.75) rotate(0 47 13)"><text x="0" y="18" font-family="Virgil, Segoe UI Emoji" font-size="20px" fill="#495057" text-anchor="start" style="white-space: pre;" direction="ltr">Network 1</text></g><g transform="translate(360.5 38.75) rotate(0 51.5 13)"><text x="0" y="18" font-family="Virgil, Segoe UI Emoji" font-size="20px" fill="#495057" text-anchor="start" style="white-space: pre;" direction="ltr">Network 2</text></g></svg>