<svg version="1.1" xmlns="http://www.w3.org/2000/svg" viewBox="0 0 554 424.75" width="554" height="424.75">
  <!-- svg-source:excalidraw -->
  
  <defs>
    <style class="style-fonts">
      @font-face {
        font-family: "Virgil";
        src: url("https://excalidraw.com/Virgil.woff2");
      }
      @font-face {
        font-family: "Cascadia";
        src: url("https://excalidraw.com/Cascadia.woff2");
      }
    </style>
  </defs>
  <rect x="0" y="0" width="554" height="424.75" fill="#ffffff"></rect><g stroke-linecap="round" transform="translate(340.5 79.25) rotate(0 101.75 167.75)"><path d="M1.64 1.39 L204.4 1.06 L203.68 335.76 L-1.17 336.67" stroke="none" stroke-width="0" fill="#ced4da"></path><path d="M-0.86 -0.47 C48.45 -0.24, 98.15 2.02, 201.93 0.52 M0.67 -0.37 C44.84 2.25, 90.63 1.52, 203.03 -0.59 M204.05 -0.32 C203.78 105.98, 202.38 214.72, 203.7 335.97 M203.05 -0.48 C201.75 120.31, 201.84 239.47, 203.76 335.32 M202.52 334.25 C159.26 333.9, 114.01 334.54, -1.45 336.79 M203.76 335.96 C136.02 337.56, 68.04 336.71, 0.07 335.52 M1.23 336.49 C1.31 254.93, 0.59 174.34, 1.11 -0.51 M0.54 335.09 C-1.24 221.52, -0.85 106.74, 0.5 -0.57" stroke="#495057" stroke-width="4" fill="none"></path></g><g transform="translate(399.5 104.75) rotate(0 51.5 12.5)"><text x="0" y="18" font-family="Virgil, Segoe UI Emoji" font-size="20px" fill="#495057" text-anchor="start" style="white-space: pre;" direction="ltr">Network 2</text></g><g stroke-linecap="round" transform="translate(10 72.75) rotate(0 101.75 167.75)"><path d="M0.9 1.06 L203.68 0.26 L202.33 336.67 L-0.77 336.25" stroke="none" stroke-width="0" fill="#ced4da"></path><path d="M-0.96 -1.01 C51.77 1.73, 103.34 1, 202.15 -0.04 M-0.81 0.67 C42.79 0.71, 86.42 0.17, 203.68 -0.21 M204.31 -1.34 C203.83 113.92, 204.62 228.15, 204.27 334.22 M203.9 0.48 C202.47 107.36, 202.24 214.9, 202.97 335.5 M204.16 333.8 C141.68 333.17, 77.77 335.52, 0.62 335.19 M204.13 335.8 C123.47 335.89, 41.96 336.46, -0.54 335.27 M0.72 335.25 C-2.06 239.25, -0.94 143.55, 0.56 0.82 M0.14 336.01 C-1.3 241.88, -1.32 147.25, 0.55 0.47" stroke="#495057" stroke-width="4" fill="none"></path></g><g transform="translate(69 98.25) rotate(0 47 12.5)"><text x="0" y="18" font-family="Virgil, Segoe UI Emoji" font-size="20px" fill="#495057" text-anchor="start" style="white-space: pre;" direction="ltr">Network 1</text></g><g stroke-linecap="round" transform="translate(55.117005831390316 251.79169668848994) rotate(0 31.632994168609628 38.232323349387)"><path d="M63.27 38.23 C63.27 40.23, 63.13 42.24, 62.88 44.21 C62.62 46.18, 62.23 48.15, 61.72 50.05 C61.21 51.94, 60.57 53.81, 59.82 55.59 C59.07 57.37, 58.19 59.09, 57.22 60.7 C56.26 62.32, 55.17 63.86, 54 65.27 C52.83 66.68, 51.56 67.99, 50.23 69.16 C48.89 70.33, 47.46 71.39, 45.99 72.3 C44.52 73.2, 42.98 73.98, 41.41 74.59 C39.84 75.21, 38.21 75.68, 36.58 75.99 C34.95 76.31, 33.28 76.46, 31.63 76.46 C29.98 76.46, 28.31 76.31, 26.68 75.99 C25.06 75.68, 23.43 75.21, 21.86 74.59 C20.29 73.98, 18.74 73.2, 17.27 72.3 C15.8 71.39, 14.37 70.33, 13.04 69.16 C11.71 67.99, 10.43 66.68, 9.27 65.27 C8.1 63.86, 7.01 62.32, 6.04 60.7 C5.07 59.09, 4.2 57.37, 3.45 55.59 C2.7 53.81, 2.06 51.94, 1.55 50.05 C1.04 48.15, 0.65 46.18, 0.39 44.21 C0.13 42.24, 0 40.23, 0 38.23 C0 36.24, 0.13 34.22, 0.39 32.25 C0.65 30.28, 1.04 28.31, 1.55 26.42 C2.06 24.52, 2.7 22.65, 3.45 20.88 C4.2 19.1, 5.07 17.37, 6.04 15.76 C7.01 14.15, 8.1 12.61, 9.27 11.2 C10.43 9.79, 11.71 8.47, 13.04 7.3 C14.37 6.13, 15.8 5.07, 17.27 4.17 C18.74 3.26, 20.29 2.49, 21.86 1.87 C23.43 1.26, 25.06 0.78, 26.68 0.47 C28.31 0.16, 29.98 0, 31.63 0 C33.28 0, 34.95 0.16, 36.58 0.47 C38.21 0.78, 39.84 1.26, 41.41 1.87 C42.98 2.49, 44.52 3.26, 45.99 4.17 C47.46 5.07, 48.89 6.13, 50.23 7.3 C51.56 8.47, 52.83 9.79, 54 11.2 C55.17 12.61, 56.26 14.15, 57.22 15.76 C58.19 17.37, 59.07 19.1, 59.82 20.88 C60.57 22.65, 61.21 24.52, 61.72 26.42 C62.23 28.31, 62.62 30.28, 62.88 32.25 C63.13 34.22, 63.2 37.24, 63.27 38.23 C63.33 39.23, 63.33 37.24, 63.27 38.23" stroke="transparent" stroke-width="1" fill="none"></path></g><g stroke-linecap="round"><g transform="translate(59.64208268738935 297.13178430599595) rotate(0 26.448638628346146 11.561387201477402)" fill-rule="evenodd"><path d="M0 0 L0.11 9.42 L40.66 29.72 L52.4 21.41 L52.9 12.3 L13.58 -6.6 L0 0" stroke="none" stroke-width="0" fill="#ced4da" fill-rule="evenodd"></path><path d="M0 0 C0.03 2.32, 0.06 4.64, 0.11 9.42 M0 0 C0.02 1.98, 0.05 3.96, 0.11 9.42 M0.11 9.42 C14.72 16.73, 29.32 24.05, 40.66 29.72 M0.11 9.42 C14.65 16.7, 29.2 23.98, 40.66 29.72 M40.66 29.72 C44.61 26.92, 48.57 24.12, 52.4 21.41 M40.66 29.72 C45 26.64, 49.35 23.56, 52.4 21.41 M52.4 21.41 C52.57 18.19, 52.75 14.97, 52.9 12.3 M52.4 21.41 C52.56 18.49, 52.72 15.57, 52.9 12.3 M52.9 12.3 C40.6 6.39, 28.3 0.48, 13.58 -6.6 M52.9 12.3 C37.31 4.81, 21.72 -2.68, 13.58 -6.6 M13.58 -6.6 C8.57 -4.16, 3.56 -1.73, 0 0 M13.58 -6.6 C8.53 -4.14, 3.48 -1.69, 0 0 M0 0 C0 0, 0 0, 0 0 M0 0 C0 0, 0 0, 0 0" stroke="#495057" stroke-width="2" fill="none"></path></g></g><mask></mask><g stroke-linecap="round"><g transform="translate(60.60878937266102 297.4319106084367) rotate(0 25.61716812233965 10.19177464623121)"><path d="M0 0 C9.51 4.96, 19.02 9.93, 39.05 20.38 M0 0 C14.65 7.65, 29.29 15.29, 39.05 20.38 M39.05 20.38 C41.49 18.68, 43.94 16.97, 51.23 11.87 M39.05 20.38 C43.58 17.22, 48.1 14.06, 51.23 11.87" stroke="#495057" stroke-width="2" fill="none"></path></g></g><mask></mask><g stroke-linecap="round"><g transform="translate(100.12337744287765 326.514852400895) rotate(0 -0.08865561764929453 -4.015930478814937)"><path d="M0 0 C-0.05 -2.1, -0.09 -4.2, -0.18 -8.03 M0 0 C-0.04 -1.82, -0.08 -3.64, -0.18 -8.03" stroke="#495057" stroke-width="2" fill="none"></path></g></g><mask></mask><g stroke-linecap="round"><g transform="translate(76.60562972681032 256.27062792904775) rotate(0 18.915880487914876 25.701680357781697)" fill-rule="evenodd"><path d="M0 0 L17.29 2.31 L27.29 6.68 L35.48 12.76 L38.11 20.59 L38.32 35.91 L36.94 42.15 L33.09 47.71 L28.44 51.04 L25.26 51.07 L20.7 46.63 L10.5 33.98 L1.16 19.81 L-0.4 14.55 L0.25 3.22" stroke="none" stroke-width="0" fill="#ced4da" fill-rule="evenodd"></path><path d="M0 0 C2.88 0.38, 11.38 0.18, 17.29 2.31 C23.21 4.44, 31.98 8.35, 35.48 12.76 C38.98 17.17, 38.06 23.88, 38.3 28.78 C38.54 33.67, 38.58 38.44, 36.94 42.15 C35.29 45.86, 31.14 50.29, 28.44 51.04 C25.73 51.79, 25.25 51.83, 20.7 46.63 C16.16 41.42, 4.57 27.04, 1.16 19.81 C-2.25 12.57, 0.4 5.98, 0.25 3.22 M0 0 C2.88 0.38, 11.38 0.18, 17.29 2.31 C23.21 4.44, 31.98 8.35, 35.48 12.76 C38.98 17.17, 38.06 23.88, 38.3 28.78 C38.54 33.67, 38.58 38.44, 36.94 42.15 C35.29 45.86, 31.14 50.29, 28.44 51.04 C25.73 51.79, 25.25 51.83, 20.7 46.63 C16.16 41.42, 4.57 27.04, 1.16 19.81 C-2.25 12.57, 0.4 5.98, 0.25 3.22" stroke="#495057" stroke-width="2" fill="none"></path></g></g><mask></mask><g stroke-linecap="round"><g transform="translate(63.210449638082764 281.96069845768164) rotate(0 23.935218500353926 1.0837497832572467)" fill-rule="evenodd"><path d="M0 0 L0.13 5.97 L1.16 9.94 L4.31 13.76 L10.96 17.89 L29.51 26.28 L36.67 28.29 L40.93 28.17 L43.58 26.52 L46.49 19.51 L47.86 5.83 L46.87 -7.86 L45.62 -11.37 L43.87 -13.42 L32.44 -19.37 L18.9 -24.74 L13.34 -26.08 L6.16 -25.52 L1.8 -21.15 L0.63 -16.51 L0 0" stroke="none" stroke-width="0" fill="#ced4da" fill-rule="evenodd"></path><path d="M0 0 C0.72 2.29, -1.8 9.05, 4.31 13.76 C10.42 18.48, 29.64 27.33, 36.67 28.29 C43.7 29.25, 44.79 25.53, 46.49 19.51 C48.19 13.48, 48.32 -1.82, 46.87 -7.86 C45.42 -13.9, 43.36 -13.7, 37.77 -16.74 C32.18 -19.77, 19.34 -25.34, 13.34 -26.08 C7.35 -26.82, 4.03 -25.5, 1.8 -21.15 C-0.42 -16.81, 0.3 -3.53, 0 0 M0 0 C0.72 2.29, -1.8 9.05, 4.31 13.76 C10.42 18.48, 29.64 27.33, 36.67 28.29 C43.7 29.25, 44.79 25.53, 46.49 19.51 C48.19 13.48, 48.32 -1.82, 46.87 -7.86 C45.42 -13.9, 43.36 -13.7, 37.77 -16.74 C32.18 -19.77, 19.34 -25.34, 13.34 -26.08 C7.35 -26.82, 4.03 -25.5, 1.8 -21.15 C-0.42 -16.81, 0.3 -3.53, 0 0" stroke="#495057" stroke-width="2" fill="none"></path></g></g><mask></mask><g stroke-linecap="round"><g transform="translate(66.39226781990078 281.51532051244834) rotate(0 20.42976942490759 0.9579109377231418)" fill-rule="evenodd"><path d="M0 0 L1.08 8.37 L3.62 11.57 L16.04 18.6 L29.29 23.59 L36.07 23.37 L39.65 18.69 L40.86 7.06 L39.77 -5.08 L37.05 -10.57 L31.74 -14.07 L15.88 -20.83 L11.21 -21.92 L5.18 -21.45 L1.52 -17.78 L0.53 -13.88 L0 0" stroke="none" stroke-width="0" fill="#343a40" fill-rule="evenodd"></path><path d="M0 0 C0.6 1.93, -1.26 7.63, 3.62 11.57 C8.51 15.5, 23.29 22.4, 29.29 23.59 C35.3 24.77, 37.9 23.46, 39.65 18.69 C41.39 13.91, 41.09 0.38, 39.77 -5.08 C38.46 -10.53, 36.5 -11.26, 31.74 -14.07 C26.98 -16.87, 16.25 -21.3, 11.21 -21.92 C6.17 -22.54, 3.38 -21.43, 1.52 -17.78 C-0.35 -14.12, 0.25 -2.96, 0 0 M0 0 C0.6 1.93, -1.26 7.63, 3.62 11.57 C8.51 15.5, 23.29 22.4, 29.29 23.59 C35.3 24.77, 37.9 23.46, 39.65 18.69 C41.39 13.91, 41.09 0.38, 39.77 -5.08 C38.46 -10.53, 36.5 -11.26, 31.74 -14.07 C26.98 -16.87, 16.25 -21.3, 11.21 -21.92 C6.17 -22.54, 3.38 -21.43, 1.52 -17.78 C-0.35 -14.12, 0.25 -2.96, 0 0" stroke="#495057" stroke-width="2" fill="none"></path></g></g><mask></mask><g stroke-linecap="round"><g transform="translate(88.66599775348527 315.7667783144288) rotate(0 4.027777777777828 3.101851851851734)" fill-rule="evenodd"><path d="M0 0 L8.02 4.03 L8.06 6.2 L0.15 2.37 L0 0" stroke="none" stroke-width="0" fill="#495057" fill-rule="evenodd"></path><path d="M0 0 C1.8 0.9, 3.6 1.81, 8.02 4.03 M0 0 C2.57 1.29, 5.13 2.58, 8.02 4.03 M8.02 4.03 C8.03 4.81, 8.05 5.58, 8.06 6.2 M8.02 4.03 C8.03 4.51, 8.04 4.99, 8.06 6.2 M8.06 6.2 C5.41 4.92, 2.77 3.63, 0.15 2.37 M8.06 6.2 C6.16 5.28, 4.27 4.37, 0.15 2.37 M0.15 2.37 C0.1 1.56, 0.05 0.75, 0 0 M0.15 2.37 C0.09 1.46, 0.04 0.56, 0 0 M0 0 C0 0, 0 0, 0 0 M0 0 C0 0, 0 0, 0 0" stroke="#495057" stroke-width="1" fill="none"></path></g></g><mask></mask><g stroke-linecap="round" transform="translate(429.1170058313903 259.79169668848994) rotate(0 31.632994168609628 38.232323349387)"><path d="M63.27 38.23 C63.27 40.23, 63.13 42.24, 62.88 44.21 C62.62 46.18, 62.23 48.15, 61.72 50.05 C61.21 51.94, 60.57 53.81, 59.82 55.59 C59.07 57.37, 58.19 59.09, 57.22 60.7 C56.26 62.32, 55.17 63.86, 54 65.27 C52.83 66.68, 51.56 67.99, 50.23 69.16 C48.89 70.33, 47.46 71.39, 45.99 72.3 C44.52 73.2, 42.98 73.98, 41.41 74.59 C39.84 75.21, 38.21 75.68, 36.58 75.99 C34.95 76.31, 33.28 76.46, 31.63 76.46 C29.98 76.46, 28.31 76.31, 26.68 75.99 C25.06 75.68, 23.43 75.21, 21.86 74.59 C20.29 73.98, 18.74 73.2, 17.27 72.3 C15.8 71.39, 14.37 70.33, 13.04 69.16 C11.71 67.99, 10.43 66.68, 9.27 65.27 C8.1 63.86, 7.01 62.32, 6.04 60.7 C5.07 59.09, 4.2 57.37, 3.45 55.59 C2.7 53.81, 2.06 51.94, 1.55 50.05 C1.04 48.15, 0.65 46.18, 0.39 44.21 C0.13 42.24, 0 40.23, 0 38.23 C0 36.24, 0.13 34.22, 0.39 32.25 C0.65 30.28, 1.04 28.31, 1.55 26.42 C2.06 24.52, 2.7 22.65, 3.45 20.88 C4.2 19.1, 5.07 17.37, 6.04 15.76 C7.01 14.15, 8.1 12.61, 9.27 11.2 C10.43 9.79, 11.71 8.47, 13.04 7.3 C14.37 6.13, 15.8 5.07, 17.27 4.17 C18.74 3.26, 20.29 2.49, 21.86 1.87 C23.43 1.26, 25.06 0.78, 26.68 0.47 C28.31 0.16, 29.98 0, 31.63 0 C33.28 0, 34.95 0.16, 36.58 0.47 C38.21 0.78, 39.84 1.26, 41.41 1.87 C42.98 2.49, 44.52 3.26, 45.99 4.17 C47.46 5.07, 48.89 6.13, 50.23 7.3 C51.56 8.47, 52.83 9.79, 54 11.2 C55.17 12.61, 56.26 14.15, 57.22 15.76 C58.19 17.37, 59.07 19.1, 59.82 20.88 C60.57 22.65, 61.21 24.52, 61.72 26.42 C62.23 28.31, 62.62 30.28, 62.88 32.25 C63.13 34.22, 63.2 37.24, 63.27 38.23 C63.33 39.23, 63.33 37.24, 63.27 38.23" stroke="transparent" stroke-width="1" fill="none"></path></g><g stroke-linecap="round"><g transform="translate(433.64208268738935 305.13178430599595) rotate(0 26.448638628346146 11.561387201477402)" fill-rule="evenodd"><path d="M0 0 L0.11 9.42 L40.66 29.72 L52.4 21.41 L52.9 12.3 L13.58 -6.6 L0 0" stroke="none" stroke-width="0" fill="#ced4da" fill-rule="evenodd"></path><path d="M0 0 C0.02 2.01, 0.05 4.02, 0.11 9.42 M0 0 C0.04 3.2, 0.08 6.39, 0.11 9.42 M0.11 9.42 C13.11 15.93, 26.1 22.43, 40.66 29.72 M0.11 9.42 C12.49 15.62, 24.87 21.82, 40.66 29.72 M40.66 29.72 C45.32 26.42, 49.98 23.12, 52.4 21.41 M40.66 29.72 C44.01 27.35, 47.36 24.98, 52.4 21.41 M52.4 21.41 C52.54 18.86, 52.68 16.31, 52.9 12.3 M52.4 21.41 C52.57 18.26, 52.74 15.12, 52.9 12.3 M52.9 12.3 C43.82 7.94, 34.74 3.57, 13.58 -6.6 M52.9 12.3 C38.63 5.44, 24.36 -1.41, 13.58 -6.6 M13.58 -6.6 C10 -4.86, 6.41 -3.12, 0 0 M13.58 -6.6 C9.47 -4.6, 5.36 -2.6, 0 0 M0 0 C0 0, 0 0, 0 0 M0 0 C0 0, 0 0, 0 0" stroke="#495057" stroke-width="2" fill="none"></path></g></g><mask></mask><g stroke-linecap="round"><g transform="translate(434.608789372661 305.4319106084367) rotate(0 25.61716812233965 10.19177464623121)"><path d="M0 0 C14.63 7.64, 29.26 15.28, 39.05 20.38 M0 0 C13.3 6.94, 26.6 13.89, 39.05 20.38 M39.05 20.38 C41.88 18.4, 44.72 16.42, 51.23 11.87 M39.05 20.38 C42.04 18.3, 45.03 16.21, 51.23 11.87" stroke="#495057" stroke-width="2" fill="none"></path></g></g><mask></mask><g stroke-linecap="round"><g transform="translate(474.12337744287765 334.514852400895) rotate(0 -0.08865561764929453 -4.015930478814937)"><path d="M0 0 C-0.05 -2.07, -0.09 -4.15, -0.18 -8.03 M0 0 C-0.05 -2.22, -0.1 -4.44, -0.18 -8.03" stroke="#495057" stroke-width="2" fill="none"></path></g></g><mask></mask><g stroke-linecap="round"><g transform="translate(450.6056297268103 264.27062792904775) rotate(0 18.915880487914876 25.701680357781697)" fill-rule="evenodd"><path d="M0 0 L17.29 2.31 L27.29 6.68 L35.48 12.76 L38.11 20.59 L38.32 35.91 L36.94 42.15 L33.09 47.71 L28.44 51.04 L25.26 51.07 L20.7 46.63 L10.5 33.98 L1.16 19.81 L-0.4 14.55 L0.25 3.22" stroke="none" stroke-width="0" fill="#ced4da" fill-rule="evenodd"></path><path d="M0 0 C2.88 0.38, 11.38 0.18, 17.29 2.31 C23.21 4.44, 31.98 8.35, 35.48 12.76 C38.98 17.17, 38.06 23.88, 38.3 28.78 C38.54 33.67, 38.58 38.44, 36.94 42.15 C35.29 45.86, 31.14 50.29, 28.44 51.04 C25.73 51.79, 25.25 51.83, 20.7 46.63 C16.16 41.42, 4.57 27.04, 1.16 19.81 C-2.25 12.57, 0.4 5.98, 0.25 3.22 M0 0 C2.88 0.38, 11.38 0.18, 17.29 2.31 C23.21 4.44, 31.98 8.35, 35.48 12.76 C38.98 17.17, 38.06 23.88, 38.3 28.78 C38.54 33.67, 38.58 38.44, 36.94 42.15 C35.29 45.86, 31.14 50.29, 28.44 51.04 C25.73 51.79, 25.25 51.83, 20.7 46.63 C16.16 41.42, 4.57 27.04, 1.16 19.81 C-2.25 12.57, 0.4 5.98, 0.25 3.22" stroke="#495057" stroke-width="2" fill="none"></path></g></g><mask></mask><g stroke-linecap="round"><g transform="translate(437.21044963808276 289.96069845768164) rotate(0 23.935218500353926 1.0837497832572467)" fill-rule="evenodd"><path d="M0 0 L0.13 5.97 L1.16 9.94 L4.31 13.76 L10.96 17.89 L29.51 26.28 L36.67 28.29 L40.93 28.17 L43.58 26.52 L46.49 19.51 L47.86 5.83 L46.87 -7.86 L45.62 -11.37 L43.87 -13.42 L32.44 -19.37 L18.9 -24.74 L13.34 -26.08 L6.16 -25.52 L1.8 -21.15 L0.63 -16.51 L0 0" stroke="none" stroke-width="0" fill="#ced4da" fill-rule="evenodd"></path><path d="M0 0 C0.72 2.29, -1.8 9.05, 4.31 13.76 C10.42 18.48, 29.64 27.33, 36.67 28.29 C43.7 29.25, 44.79 25.53, 46.49 19.51 C48.19 13.48, 48.32 -1.82, 46.87 -7.86 C45.42 -13.9, 43.36 -13.7, 37.77 -16.74 C32.18 -19.77, 19.34 -25.34, 13.34 -26.08 C7.35 -26.82, 4.03 -25.5, 1.8 -21.15 C-0.42 -16.81, 0.3 -3.53, 0 0 M0 0 C0.72 2.29, -1.8 9.05, 4.31 13.76 C10.42 18.48, 29.64 27.33, 36.67 28.29 C43.7 29.25, 44.79 25.53, 46.49 19.51 C48.19 13.48, 48.32 -1.82, 46.87 -7.86 C45.42 -13.9, 43.36 -13.7, 37.77 -16.74 C32.18 -19.77, 19.34 -25.34, 13.34 -26.08 C7.35 -26.82, 4.03 -25.5, 1.8 -21.15 C-0.42 -16.81, 0.3 -3.53, 0 0" stroke="#495057" stroke-width="2" fill="none"></path></g></g><mask></mask><g stroke-linecap="round"><g transform="translate(440.3922678199008 289.51532051244834) rotate(0 20.42976942490759 0.9579109377231418)" fill-rule="evenodd"><path d="M0 0 L1.08 8.37 L3.62 11.57 L16.04 18.6 L29.29 23.59 L36.07 23.37 L39.65 18.69 L40.86 7.06 L39.77 -5.08 L37.05 -10.57 L31.74 -14.07 L15.88 -20.83 L11.21 -21.92 L5.18 -21.45 L1.52 -17.78 L0.53 -13.88 L0 0" stroke="none" stroke-width="0" fill="#343a40" fill-rule="evenodd"></path><path d="M0 0 C0.6 1.93, -1.26 7.63, 3.62 11.57 C8.51 15.5, 23.29 22.4, 29.29 23.59 C35.3 24.77, 37.9 23.46, 39.65 18.69 C41.39 13.91, 41.09 0.38, 39.77 -5.08 C38.46 -10.53, 36.5 -11.26, 31.74 -14.07 C26.98 -16.87, 16.25 -21.3, 11.21 -21.92 C6.17 -22.54, 3.38 -21.43, 1.52 -17.78 C-0.35 -14.12, 0.25 -2.96, 0 0 M0 0 C0.6 1.93, -1.26 7.63, 3.62 11.57 C8.51 15.5, 23.29 22.4, 29.29 23.59 C35.3 24.77, 37.9 23.46, 39.65 18.69 C41.39 13.91, 41.09 0.38, 39.77 -5.08 C38.46 -10.53, 36.5 -11.26, 31.74 -14.07 C26.98 -16.87, 16.25 -21.3, 11.21 -21.92 C6.17 -22.54, 3.38 -21.43, 1.52 -17.78 C-0.35 -14.12, 0.25 -2.96, 0 0" stroke="#495057" stroke-width="2" fill="none"></path></g></g><mask></mask><g stroke-linecap="round"><g transform="translate(462.66599775348527 323.7667783144288) rotate(0 4.027777777777828 3.101851851851734)" fill-rule="evenodd"><path d="M0 0 L8.02 4.03 L8.06 6.2 L0.15 2.37 L0 0" stroke="none" stroke-width="0" fill="#495057" fill-rule="evenodd"></path><path d="M0 0 C2.36 1.19, 4.72 2.37, 8.02 4.03 M0 0 C2.45 1.23, 4.91 2.47, 8.02 4.03 M8.02 4.03 C8.03 4.63, 8.04 5.22, 8.06 6.2 M8.02 4.03 C8.03 4.56, 8.04 5.08, 8.06 6.2 M8.06 6.2 C6.18 5.29, 4.3 4.38, 0.15 2.37 M8.06 6.2 C5.99 5.2, 3.93 4.2, 0.15 2.37 M0.15 2.37 C0.1 1.58, 0.05 0.79, 0 0 M0.15 2.37 C0.11 1.75, 0.07 1.13, 0 0 M0 0 C0 0, 0 0, 0 0 M0 0 C0 0, 0 0, 0 0" stroke="#495057" stroke-width="1" fill="none"></path></g></g><mask></mask><g stroke-linecap="round" transform="translate(133.1736278773319 207.31581420925818) rotate(0 22 77.46787644381499)"><path d="M-0.47 0.79 C11.71 -0.56, 23 -2.08, 43.13 0.11 M-0.95 0.21 C13.17 -0.96, 28.27 0.46, 44.73 -0.27 M44.01 0.11 C42.5 51.11, 44.33 103.13, 44.36 153.76 M43.83 0.97 C45.42 34.47, 45.83 68.23, 44.86 154.31 M43.48 154.64 C32.28 156.14, 17.99 154.3, 0 154.15 M44.61 154.73 C27.98 154.51, 10.55 155.88, 0.78 155.26 M1.39 155.84 C2.38 97.06, 1.57 37.66, 1.17 -0.77 M0.31 154.24 C1.48 102.72, 1.57 51.27, 0.95 -0.49" stroke="#000000" stroke-width="1" fill="none"></path></g><g stroke-linecap="round"><g transform="translate(133.45309179187393 240.71136068753964) rotate(0 21.7642268363702 -0.40591855943202404)"><path d="M-0.28 0.47 C7.15 0.22, 36.42 -0.84, 43.81 -1.28 M1.77 -0.33 C9.16 -0.42, 36.14 0.3, 43.12 0.1" stroke="#000000" stroke-width="1" fill="none"></path></g></g><mask></mask><g stroke-linecap="round"><g transform="translate(132.45309179187393 274.78369065307305) rotate(0 22.400920633635337 -0.7662827839716044)"><path d="M0.47 0.49 C8.02 0.49, 38.18 0.06, 45.54 -0.28 M-0.74 -0.3 C6.61 -0.62, 36.5 -1.99, 44.44 -2.02" stroke="#000000" stroke-width="1" fill="none"></path></g></g><mask></mask><g stroke-linecap="round"><g transform="translate(132.45309179187393 306.51762887498063) rotate(0 22.91615076888246 -1.2385034173726979)"><path d="M0.49 -0.28 C8.29 -0.73, 39.08 -2.09, 46.55 -2.19 M-0.72 -1.48 C7.02 -1.86, 38.48 -1.6, 45.98 -1.28" stroke="#000000" stroke-width="1" fill="none"></path></g></g><mask></mask><g stroke-linecap="round"><g transform="translate(144.52364866297876 333.32921634570766) rotate(0 -0.24200356518622357 -13.434624980539866)"><path d="M-0.28 0.72 C-0.74 -3.96, -2.13 -22.99, -2.25 -27.59 M1.77 0.06 C1.62 -4.51, 0.41 -22.07, -0.17 -26.33" stroke="#000000" stroke-width="1" fill="none"></path></g></g><mask></mask><g stroke-linecap="round"><g transform="translate(153.4664939283232 273.27028851662374) rotate(0 -0.12755181761770018 16.59103658629772)"><path d="M0.72 -1.19 C0.69 4.32, 0.22 27.08, 0.26 32.8 M-0.36 0.79 C-0.64 6.54, -1.07 29.34, -0.96 34.38" stroke="#000000" stroke-width="1" fill="none"></path></g></g><mask></mask><g stroke-linecap="round"><g transform="translate(165.53705079942802 238.4908246020816) rotate(0 -1.091752714997881 19.009633218107922)"><path d="M-1.19 -0.52 C-1.42 5.51, -1.63 30.59, -1.65 36.91 M0.38 1.82 C0.03 8.01, -2.19 32.94, -2.56 38.54" stroke="#000000" stroke-width="1" fill="none"></path></g></g><mask></mask><g stroke-linecap="round"><g transform="translate(154.3620404066046 238.65736083225153) rotate(0 0.33441824625003846 -15.245486771767844)"><path d="M-0.52 0.07 C-0.62 -4.51, -0.07 -23.61, 0.12 -28.66 M1.41 -0.94 C1.1 -5.78, -0.54 -25.8, -0.74 -30.56" stroke="#000000" stroke-width="1" fill="none"></path></g></g><mask></mask><g stroke-linecap="round"><g transform="translate(178.2459578428652 332.9957525758774) rotate(0 -21.732325189154267 0.8210022448581071)"><path d="M0.07 0.18 C-6.87 0.67, -35.4 2.12, -42.8 2.42 M-1.36 -0.78 C-8.31 -0.59, -36.75 -0.04, -43.53 0.66" stroke="#000000" stroke-width="1" fill="none"></path></g></g><mask></mask><g stroke-linecap="round"><g transform="translate(145.31651471397004 242.2162886613355) rotate(0 -0.36164058454068027 16.310835076102222)"><path d="M0.18 0.42 C0.34 5.75, 0.49 26.76, 0.47 32.09 M-1.19 -0.41 C-1.08 5.03, -0.22 27.41, -0.12 33.03" stroke="#000000" stroke-width="1" fill="none"></path></g></g><mask></mask><g stroke-linecap="round"><g transform="translate(167.11292442956596 333.04848315092715) rotate(0 -0.8914604311274275 -14.066613475462276)"><path d="M0.42 0.69 C0.04 -3.81, -1.82 -22.06, -2.2 -26.83 M-0.82 0 C-0.86 -4.9, -0.32 -24.31, -0.09 -28.82" stroke="#000000" stroke-width="1" fill="none"></path></g></g><mask></mask><g stroke-linecap="round"><g transform="translate(158.08843282576322 359.87709638785554) rotate(0 -0.48074806066097153 -13.502746572350958)"><path d="M0.69 -1.14 C0.52 -5.86, -0.38 -23.68, -0.81 -27.88 M-0.41 0.87 C-0.73 -3.74, -1.79 -21.9, -1.63 -26.77" stroke="#000000" stroke-width="1" fill="none"></path></g></g><mask></mask><g stroke-linecap="round" transform="translate(376.71328704876237 215.81581420925818) rotate(0 22 77.46787644381499)"><path d="M0.41 -1.35 C13.32 1.59, 30.89 1.87, 43.46 0.78 M0.05 -0.55 C11.34 0.37, 23.13 0.18, 43.41 -0.81 M45.94 0.59 C45.58 59.11, 45.2 117.12, 42.76 155.09 M43.85 0.91 C43.8 47.31, 42.88 93.56, 43.61 155.76 M43.59 156.55 C31.25 155.62, 22.44 156.76, 0.65 156.43 M44.45 155.47 C34.62 155.37, 24.48 155.82, -0.38 155.31 M-1.38 156.7 C1.51 116.4, 3.22 75.91, -0.98 0.45 M0.63 155.77 C0.65 119.19, 1.5 81.82, -0.73 -0.82" stroke="#000000" stroke-width="1" fill="none"></path></g><g stroke-linecap="round"><g transform="translate(376.9927509633044 249.2113606875397) rotate(0 21.83057376664493 -0.33324726746417355)"><path d="M0.25 -0.81 C7.21 -0.67, 35.15 -0.41, 42.48 -0.3 M-1.08 1.38 C6.2 1.28, 37.25 -1.48, 44.74 -2.05" stroke="#000000" stroke-width="1" fill="none"></path></g></g><mask></mask><g stroke-linecap="round"><g transform="translate(375.9927509633044 283.283690653073) rotate(0 22.860642099784513 -0.24606522978282896)"><path d="M-0.81 -0.85 C7.14 -0.91, 38.61 -0.06, 46.53 -0.14 M0.97 1.32 C8.92 0.9, 38.38 -1.56, 45.95 -1.81" stroke="#000000" stroke-width="1" fill="none"></path></g></g><mask></mask><g stroke-linecap="round"><g transform="translate(375.9927509633044 315.0176288749807) rotate(0 22.917810649083833 -0.538024476492609)"><path d="M-0.85 0.7 C6.89 0.82, 38.96 0.08, 46.68 -0.13 M0.91 0.03 C8.54 -0.12, 38.91 -1.35, 46.19 -1.79" stroke="#000000" stroke-width="1" fill="none"></path></g></g><mask></mask><g stroke-linecap="round"><g transform="translate(388.0633078344092 341.82921634570766) rotate(0 0.01861587399889686 -13.268412707895834)"><path d="M0.7 0.86 C0.81 -3.57, 0.03 -22.69, -0.19 -27.39 M-0.39 0.26 C-0.29 -3.91, -0.56 -21.61, -0.68 -26.03" stroke="#000000" stroke-width="1" fill="none"></path></g></g><mask></mask><g stroke-linecap="round"><g transform="translate(397.00615309975365 281.77028851662374) rotate(0 0.1239570716359708 16.74330234704729)"><path d="M0.86 0.87 C1.08 6.29, 0.52 28.05, 0.46 33.2 M-0.15 0.29 C-0.05 5.28, -0.61 25.94, -0.66 31.32" stroke="#000000" stroke-width="1" fill="none"></path></g></g><mask></mask><g stroke-linecap="round"><g transform="translate(409.0767099708585 246.9908246020816) rotate(0 -0.5415237462927962 18.12541297254822)"><path d="M0.87 -0.32 C0.55 5.6, -0.66 30.24, -1.25 36.42 M-0.13 -1.54 C-0.63 4.49, -1.93 31.19, -1.96 37.79" stroke="#000000" stroke-width="1" fill="none"></path></g></g><mask></mask><g stroke-linecap="round"><g transform="translate(397.90169957803505 247.15736083225158) rotate(0 0.10947719762793895 -14.778450291008568)"><path d="M-0.32 0.47 C-0.53 -4.68, -0.42 -25.11, -0.38 -30.02 M1.71 -0.33 C1.24 -5.44, -1.07 -24.43, -1.49 -28.99" stroke="#000000" stroke-width="1" fill="none"></path></g></g><mask></mask><g stroke-linecap="round"><g transform="translate(421.78561701429567 341.4957525758774) rotate(0 -21.852553350970766 0.8778556972528122)"><path d="M0.47 -0.32 C-7.04 0.03, -36.9 1.51, -44.17 1.74 M-0.75 -1.53 C-7.96 -0.95, -34.77 2.69, -41.96 3.28" stroke="#000000" stroke-width="1" fill="none"></path></g></g><mask></mask><g stroke-linecap="round"><g transform="translate(388.8561738854005 250.7162886613355) rotate(0 0.2811157941457054 16.958867387307976)"><path d="M-0.32 -0.95 C-0.3 4.52, -0.12 27.74, -0.21 33.3 M1.72 1.16 C1.61 6.8, -0.54 29.52, -1.16 34.87" stroke="#000000" stroke-width="1" fill="none"></path></g></g><mask></mask><g stroke-linecap="round"><g transform="translate(410.6525836009964 341.54848315092715) rotate(0 -0.5797768834722774 -13.859597037882423)"><path d="M-0.95 0.01 C-1.2 -4.56, -0.84 -23.29, -0.99 -27.73 M0.75 -1.03 C0.31 -5.43, -1.88 -21.92, -1.91 -26.53" stroke="#000000" stroke-width="1" fill="none"></path></g></g><mask></mask><g stroke-linecap="round"><g transform="translate(401.62809199719345 368.37709638785554) rotate(0 -0.530289190895985 -13.924897472710228)"><path d="M0.01 0.06 C-0.22 -4.43, -1.61 -23.2, -1.71 -27.91 M-1.45 -0.95 C-1.26 -5.23, 0.6 -22.39, 0.65 -26.82" stroke="#000000" stroke-width="1" fill="none"></path></g></g><mask></mask><g stroke-linecap="round"><g transform="translate(434.4786292574245 295.90709188539427) rotate(0 -159.50652457534102 -1.7397577481050632)"><path d="M0.06 -0.66 C-52.96 -1.19, -265.84 -2.74, -319.08 -3.2 M-1.36 1.62 C-53.92 0.71, -264.19 -4.49, -316.81 -5.09" stroke="#2b8a3e" stroke-width="1" fill="none"></path></g><g transform="translate(434.4786292574245 295.90709188539427) rotate(0 -159.50652457534102 -1.7397577481050632)"><path d="M-0.51 -1.67 L-13.52 6.24 L-15.13 -8.08 L-1.1 0.93" stroke="none" stroke-width="0" fill="#2b8a3e" fill-rule="evenodd"></path><path d="M-0.75 -1.71 C-2.39 -0.7, -5.69 1.22, -14.79 6.66 M0.29 -0.27 C-3.99 1.81, -8.43 3.18, -13.52 5.59 M-12.43 6.51 C-12.85 2.31, -13.5 -0.99, -12.43 -7.58 M-13.07 5.19 C-13.49 1.73, -13.09 -2.87, -13.01 -7.64 M-12.68 -6.97 C-8.07 -5.58, -2.21 -2.81, 0.63 -1.24 M-12.82 -7.05 C-9.87 -4.95, -7.01 -4.65, 0.23 -1.14 M0.06 -0.66 C0.06 -0.66, 0.06 -0.66, 0.06 -0.66 M0.06 -0.66 C0.06 -0.66, 0.06 -0.66, 0.06 -0.66" stroke="#2b8a3e" stroke-width="1" fill="none"></path></g><g transform="translate(434.4786292574245 295.90709188539427) rotate(0 -159.50652457534102 -1.7397577481050632)"><path d="M-317.38 -6.11 L-303.04 -10.51 L-304.99 0.52 L-317.98 -3.51" stroke="none" stroke-width="0" fill="#2b8a3e" fill-rule="evenodd"></path><path d="M-317.63 -6.15 C-313.23 -7.87, -310.49 -8.67, -304.31 -10.09 M-316.59 -4.71 C-311.68 -7.01, -306.97 -9.76, -303.04 -11.16 M-301.94 -10.24 C-302.51 -8.37, -303.24 -5.6, -302.29 1.02 M-302.58 -11.56 C-302.97 -6.37, -302.69 -2.32, -302.86 0.96 M-302.54 1.63 C-308.34 -1.83, -312.8 -4.05, -316.24 -5.68 M-302.67 1.56 C-305.49 0.71, -308.35 -1.75, -316.64 -5.58 M-316.81 -5.09 C-316.81 -5.09, -316.81 -5.09, -316.81 -5.09 M-316.81 -5.09 C-316.81 -5.09, -316.81 -5.09, -316.81 -5.09" stroke="#2b8a3e" stroke-width="1" fill="none"></path></g></g><mask></mask><g stroke-linecap="round" transform="translate(238.590909090909 39.36152855704512) rotate(0 34.65909090909099 43.700592885375585)"><path d="M0 0 L69.32 0 L69.32 87.4 L0 87.4" stroke="none" stroke-width="0" fill="#0000"></path><path d="M0 0 C20.84 0, 41.69 0, 69.32 0 M0 0 C19.59 0, 39.18 0, 69.32 0 M69.32 0 C69.32 23.94, 69.32 47.88, 69.32 87.4 M69.32 0 C69.32 31.54, 69.32 63.08, 69.32 87.4 M69.32 87.4 C43.72 87.4, 18.12 87.4, 0 87.4 M69.32 87.4 C46.34 87.4, 23.36 87.4, 0 87.4 M0 87.4 C0 64.58, 0 41.76, 0 0 M0 87.4 C0 67.9, 0 48.41, 0 0" stroke="#0000" stroke-width="2" fill="none"></path></g><g stroke-linecap="round"><g transform="translate(241.891206862814 94.16499719140273) rotate(0 32.04392751857932 6.746090003911391)" fill-rule="evenodd"><path d="M0 0 L0.19 13.3 L32.61 32.98 L62.96 14.99 L64.09 0 L31.48 -19.49 L0 0" stroke="none" stroke-width="0" fill="#ced4da" fill-rule="evenodd"></path><path d="M0 0 C0.06 4.06, 0.11 8.13, 0.19 13.3 M0 0 C0.07 5.28, 0.15 10.57, 0.19 13.3 M0.19 13.3 C9.44 18.92, 18.69 24.53, 32.61 32.98 M0.19 13.3 C9.26 18.81, 18.32 24.31, 32.61 32.98 M32.61 32.98 C43.09 26.77, 53.56 20.56, 62.96 14.99 M32.61 32.98 C39.62 28.83, 46.62 24.67, 62.96 14.99 M62.96 14.99 C63.37 9.55, 63.78 4.11, 64.09 0 M62.96 14.99 C63.26 11.04, 63.56 7.08, 64.09 0 M64.09 0 C54.21 -5.9, 44.34 -11.8, 31.48 -19.49 M64.09 0 C55.37 -5.21, 46.65 -10.42, 31.48 -19.49 M31.48 -19.49 C22.31 -13.81, 13.14 -8.13, 0 0 M31.48 -19.49 C21.04 -13.03, 10.6 -6.56, 0 0 M0 0 C0 0, 0 0, 0 0 M0 0 C0 0, 0 0, 0 0" stroke="#495057" stroke-width="2" fill="none"></path></g></g><mask></mask><g stroke-linecap="round"><g transform="translate(274.3099171593917 125.83414193198877) rotate(0 5.684341886080802e-14 -6.371307225916354)"><path d="M0 0 C0 -3.13, 0 -6.25, 0 -12.74 M0 0 C0 -4.2, 0 -8.4, 0 -12.74" stroke="#495057" stroke-width="2" fill="none"></path></g></g><mask></mask><g stroke-linecap="round"><g transform="translate(242.26598964081063 94.53977996939778) rotate(0 31.38805765708787 9.182178060879409)"><path d="M0 0 C7.36 4.22, 14.73 8.44, 32.04 18.36 M0 0 C11.28 6.46, 22.55 12.92, 32.04 18.36 M32.04 18.36 C43.52 11.85, 55.01 5.34, 62.78 0.94 M32.04 18.36 C39.41 14.19, 46.77 10.01, 62.78 0.94" stroke="#495057" stroke-width="2" fill="none"></path></g></g><mask></mask><g stroke-linecap="round"><g transform="translate(277.1207879943536 119.27544331707458) rotate(0 7.5308514092099585 -4.216306252444639)"><path d="M0 0 C5.07 -2.84, 10.15 -5.68, 15.06 -8.43 M0 0 C5.58 -3.12, 11.16 -6.25, 15.06 -8.43" stroke="#495057" stroke-width="2" fill="none"></path></g></g><mask></mask><g stroke-linecap="round"><g transform="translate(295.04617470723815 107.64002505829711) rotate(0 3.9169667609290855 -0.5402712773695555)" fill-rule="evenodd"><path d="M0 0 L0.09 3.42 L7.24 -1.23 L7.83 -4.5 L0 0" stroke="none" stroke-width="0" fill="#ced4da" fill-rule="evenodd"></path><path d="M0 0 C0.02 0.7, 0.04 1.4, 0.09 3.42 M0 0 C0.03 1.14, 0.06 2.28, 0.09 3.42 M0.09 3.42 C2.1 2.11, 4.12 0.8, 7.24 -1.23 M0.09 3.42 C2.78 1.67, 5.47 -0.08, 7.24 -1.23 M7.24 -1.23 C7.39 -2.02, 7.53 -2.81, 7.83 -4.5 M7.24 -1.23 C7.48 -2.51, 7.71 -3.8, 7.83 -4.5 M7.83 -4.5 C5.03 -2.89, 2.22 -1.28, 0 0 M7.83 -4.5 C4.89 -2.81, 1.95 -1.12, 0 0 M0 0 C0 0, 0 0, 0 0 M0 0 C0 0, 0 0, 0 0" stroke="#495057" stroke-width="1" fill="none"></path></g></g><mask></mask><g stroke-linecap="round"><g transform="translate(241.74970724255604 76.49849091905179) rotate(0 32.04392751857932 6.746090003911391)" fill-rule="evenodd"><path d="M0 0 L0.19 13.3 L32.61 32.98 L62.96 14.99 L64.09 0 L31.48 -19.49 L0 0" stroke="none" stroke-width="0" fill="#ced4da" fill-rule="evenodd"></path><path d="M0 0 C0.06 4.23, 0.12 8.46, 0.19 13.3 M0 0 C0.07 5.14, 0.14 10.28, 0.19 13.3 M0.19 13.3 C9.91 19.21, 19.64 25.11, 32.61 32.98 M0.19 13.3 C12.44 20.74, 24.69 28.18, 32.61 32.98 M32.61 32.98 C43.48 26.54, 54.36 20.09, 62.96 14.99 M32.61 32.98 C44.6 25.87, 56.59 18.77, 62.96 14.99 M62.96 14.99 C63.27 10.88, 63.58 6.78, 64.09 0 M62.96 14.99 C63.3 10.54, 63.63 6.09, 64.09 0 M64.09 0 C51.73 -7.39, 39.37 -14.77, 31.48 -19.49 M64.09 0 C56.63 -4.46, 49.17 -8.92, 31.48 -19.49 M31.48 -19.49 C22.63 -14.01, 13.78 -8.53, 0 0 M31.48 -19.49 C22.08 -13.67, 12.69 -7.85, 0 0 M0 0 C0 0, 0 0, 0 0 M0 0 C0 0, 0 0, 0 0" stroke="#495057" stroke-width="2" fill="none"></path></g></g><mask></mask><g stroke-linecap="round"><g transform="translate(274.16841753912195 108.16763565963464) rotate(0 5.684341886080802e-14 -6.371307225916354)"><path d="M0 0 C0 -3.07, 0 -6.14, 0 -12.74 M0 0 C0 -3.03, 0 -6.06, 0 -12.74" stroke="#495057" stroke-width="2" fill="none"></path></g></g><mask></mask><g stroke-linecap="round"><g transform="translate(242.12449002054586 76.87327369704639) rotate(0 31.38805765708787 9.182178060879409)"><path d="M0 0 C7.02 4.02, 14.04 8.05, 32.04 18.36 M0 0 C9.86 5.65, 19.72 11.3, 32.04 18.36 M32.04 18.36 C43.8 11.7, 55.55 5.03, 62.78 0.94 M32.04 18.36 C43.56 11.83, 55.07 5.3, 62.78 0.94" stroke="#495057" stroke-width="2" fill="none"></path></g></g><mask></mask><g stroke-linecap="round"><g transform="translate(276.97928837408836 101.60893704472227) rotate(0 7.870438337896701 -4.21630625244461)"><path d="M0 0 C5.86 -3.14, 11.72 -6.28, 15.74 -8.43 M0 0 C4.75 -2.55, 9.51 -5.09, 15.74 -8.43" stroke="#495057" stroke-width="2" fill="none"></path></g></g><mask></mask><g stroke-linecap="round"><g transform="translate(295.41405548000466 89.46413839291534) rotate(0 3.314199962510145 -0.3594412378437539)" fill-rule="evenodd"><path d="M0 0 L0.09 3.42 L6.48 -0.36 L6.63 -4.14 L0 0" stroke="none" stroke-width="0" fill="#ced4da" fill-rule="evenodd"></path><path d="M0 0 C0.03 1.15, 0.06 2.29, 0.09 3.42 M0 0 C0.02 0.82, 0.04 1.64, 0.09 3.42 M0.09 3.42 C2.27 2.13, 4.45 0.84, 6.48 -0.36 M0.09 3.42 C2.53 1.98, 4.97 0.53, 6.48 -0.36 M6.48 -0.36 C6.51 -1.16, 6.54 -1.96, 6.63 -4.14 M6.48 -0.36 C6.51 -1.27, 6.55 -2.18, 6.63 -4.14 M6.63 -4.14 C4.26 -2.66, 1.89 -1.18, 0 0 M6.63 -4.14 C4.83 -3.02, 3.03 -1.89, 0 0 M0 0 C0 0, 0 0, 0 0 M0 0 C0 0, 0 0, 0 0" stroke="#495057" stroke-width="1" fill="none"></path></g></g><mask></mask><g stroke-linecap="round"><g transform="translate(241.60820762228673 59.0730913660679) rotate(0 32.04392751857932 6.746090003911391)" fill-rule="evenodd"><path d="M0 0 L0.19 13.3 L32.61 32.98 L62.96 14.99 L64.09 0 L31.48 -19.49 L0 0" stroke="none" stroke-width="0" fill="#ced4da" fill-rule="evenodd"></path><path d="M0 0 C0.05 3.76, 0.11 7.52, 0.19 13.3 M0 0 C0.05 3.64, 0.1 7.29, 0.19 13.3 M0.19 13.3 C11.89 20.41, 23.58 27.51, 32.61 32.98 M0.19 13.3 C12.16 20.57, 24.13 27.84, 32.61 32.98 M32.61 32.98 C42.67 27.02, 52.73 21.05, 62.96 14.99 M32.61 32.98 C40.53 28.28, 48.46 23.59, 62.96 14.99 M62.96 14.99 C63.21 11.65, 63.47 8.3, 64.09 0 M62.96 14.99 C63.24 11.26, 63.52 7.52, 64.09 0 M64.09 0 C55.09 -5.38, 46.09 -10.76, 31.48 -19.49 M64.09 0 C51.56 -7.49, 39.04 -14.97, 31.48 -19.49 M31.48 -19.49 C24.65 -15.26, 17.81 -11.03, 0 0 M31.48 -19.49 C19.12 -11.84, 6.76 -4.19, 0 0 M0 0 C0 0, 0 0, 0 0 M0 0 C0 0, 0 0, 0 0" stroke="#495057" stroke-width="2" fill="none"></path></g></g><mask></mask><g stroke-linecap="round"><g transform="translate(274.0269179188656 90.74223610664984) rotate(0 5.684341886080802e-14 -6.37130722591634)"><path d="M0 0 C0 -5.06, 0 -10.12, 0 -12.74 M0 0 C0 -3.64, 0 -7.27, 0 -12.74" stroke="#495057" stroke-width="2" fill="none"></path></g></g><mask></mask><g stroke-linecap="round"><g transform="translate(241.98299040028905 59.447874144061814) rotate(0 31.38805765708787 9.182178060879409)"><path d="M0 0 C10.56 6.05, 21.12 12.11, 32.04 18.36 M0 0 C12.53 7.18, 25.06 14.36, 32.04 18.36 M32.04 18.36 C43.75 11.73, 55.45 5.09, 62.78 0.94 M32.04 18.36 C42.89 12.21, 53.74 6.06, 62.78 0.94" stroke="#495057" stroke-width="2" fill="none"></path></g></g><mask></mask><g stroke-linecap="round"><g transform="translate(276.8377887538279 84.18353749173633) rotate(0 7.870438337896701 -4.216306252444625)"><path d="M0 0 C5.54 -2.97, 11.08 -5.93, 15.74 -8.43 M0 0 C5.88 -3.15, 11.76 -6.3, 15.74 -8.43" stroke="#495057" stroke-width="2" fill="none"></path></g></g><mask></mask><g stroke-linecap="round"><g transform="translate(295.27255585974035 72.038738839931) rotate(0 3.6155833617195867 -0.2991645580018911)" fill-rule="evenodd"><path d="M0 0 L0.09 3.42 L6.84 -0.24 L7.23 -4.02 L0 0" stroke="none" stroke-width="0" fill="#ced4da" fill-rule="evenodd"></path><path d="M0 0 C0.03 1.27, 0.07 2.53, 0.09 3.42 M0 0 C0.03 1.21, 0.06 2.42, 0.09 3.42 M0.09 3.42 C2.25 2.25, 4.42 1.07, 6.84 -0.24 M0.09 3.42 C2.2 2.28, 4.31 1.13, 6.84 -0.24 M6.84 -0.24 C6.99 -1.74, 7.15 -3.24, 7.23 -4.02 M6.84 -0.24 C6.98 -1.63, 7.13 -3.03, 7.23 -4.02 M7.23 -4.02 C4.54 -2.53, 1.85 -1.03, 0 0 M7.23 -4.02 C5.42 -3.01, 3.6 -2, 0 0 M0 0 C0 0, 0 0, 0 0 M0 0 C0 0, 0 0, 0 0" stroke="#495057" stroke-width="1" fill="none"></path></g></g><mask></mask><g stroke-linecap="round"><g transform="translate(110.97991584783415 251.3699634760706) rotate(0 64.59618423213294 -76.39050318603978)"><path d="M-0.75 0.09 C15.9 -3.93, 78.51 2.4, 100.29 -23.1 C122.07 -48.59, 124.76 -131.42, 129.94 -152.87 M1.06 -0.9 C17.52 -4.27, 78.03 3.18, 99.36 -21.94 C120.68 -47.07, 124.15 -129.65, 129.01 -151.65" stroke="#2b8a3e" stroke-width="1" fill="none"></path></g><g transform="translate(110.97991584783415 251.3699634760706) rotate(0 64.59618423213294 -76.39050318603978)"><path d="M129.88 -153.07 L132.29 -138.34 L120.11 -139.77 L130.69 -151.82" stroke="none" stroke-width="0" fill="#2b8a3e" fill-rule="evenodd"></path><path d="M129.12 -151.62 C129.7 -147.24, 131.87 -140.71, 134.55 -136.52 M129.63 -151.93 C130.57 -147.14, 131.35 -142.96, 132.99 -137.16 M134.39 -138.39 C129.75 -137.05, 124.55 -137.9, 120.99 -138.88 M133.68 -137.57 C129.84 -137.58, 126.92 -137.64, 120.93 -138.43 M121.22 -140.01 C123.07 -144.53, 128.09 -147.65, 128.61 -150.62 M120.26 -138.76 C124.26 -144.08, 126.47 -147.9, 128.98 -151.11 M129.01 -151.65 C129.01 -151.65, 129.01 -151.65, 129.01 -151.65 M129.01 -151.65 C129.01 -151.65, 129.01 -151.65, 129.01 -151.65" stroke="#2b8a3e" stroke-width="1" fill="none"></path></g></g><mask></mask><g stroke-linecap="round"><g transform="translate(439.34194495725035 268.18721447681366) rotate(0 -67.12499605998198 -72.24446621889183)"><path d="M0.09 0.02 C-14.8 -4.69, -66.06 -5.21, -88.32 -29 C-110.58 -52.79, -126.13 -123.71, -133.48 -142.74 M-1.32 -1.01 C-15.91 -5.48, -63.82 -3.71, -85.99 -27.63 C-108.16 -51.54, -126.72 -124.88, -134.34 -144.51" stroke="#2b8a3e" stroke-width="1" fill="none"></path></g><g transform="translate(439.34194495725035 268.18721447681366) rotate(0 -67.12499605998198 -72.24446621889183)"><path d="M-135.77 -145.67 L-125.11 -134.34 L-136.87 -127.94 L-134.52 -142.87" stroke="none" stroke-width="0" fill="#2b8a3e" fill-rule="evenodd"></path><path d="M-134.31 -145.42 C-130.84 -140.51, -125.13 -134.96, -123.29 -133.84 M-134.63 -144.2 C-130.85 -141.46, -127.63 -138.48, -123.93 -132.99 M-125.17 -132.52 C-127.75 -131.41, -132.51 -130.38, -135.98 -130.36 M-124.34 -134.12 C-128.22 -132.54, -132.18 -130.65, -135.53 -129.03 M-137.11 -130.5 C-135.94 -134.57, -133.4 -141.79, -133.31 -143.64 M-135.86 -129.19 C-136.12 -133.96, -134.93 -137.8, -133.8 -143.94 M-134.34 -144.51 C-134.34 -144.51, -134.34 -144.51, -134.34 -144.51 M-134.34 -144.51 C-134.34 -144.51, -134.34 -144.51, -134.34 -144.51" stroke="#2b8a3e" stroke-width="1" fill="none"></path></g></g><mask></mask><g transform="translate(217.63147965632857 173.94731621249355) rotate(0 3.5 12.5)"><text x="0" y="18" font-family="Virgil, Segoe UI Emoji" font-size="20px" fill="#2b8a3e" text-anchor="start" style="white-space: pre;" direction="ltr">1</text></g><g transform="translate(323.34518708208407 162.00340768173044) rotate(0 8 12.5)"><text x="0" y="18" font-family="Virgil, Segoe UI Emoji" font-size="20px" fill="#2b8a3e" text-anchor="start" style="white-space: pre;" direction="ltr">3</text></g><g stroke-linecap="round"><g transform="translate(114.44387298694187 269.5214812485322) rotate(180 74.9501852123862 -68.28713104425597)"><path d="M-0.31 -0.18 C5.37 -18.53, 9.02 -88.16, 34.11 -110.87 C59.19 -133.57, 130.97 -132.1, 150.21 -136.4 M1.72 -1.31 C7.34 -19.94, 9.05 -90.21, 33.73 -112.53 C58.41 -134.84, 130.44 -131.32, 149.78 -135.2" stroke="#2b8a3e" stroke-width="1" fill="none"></path></g><g transform="translate(114.44387298694187 269.5214812485322) rotate(180 74.9501852123862 -68.28713104425597)"><path d="M149.01 -135.93 L138.44 -127.93 L137.36 -140.86 L151.59 -134.94" stroke="none" stroke-width="0" fill="#2b8a3e" fill-rule="evenodd"></path><path d="M149.56 -133.83 C146.91 -132.18, 141.6 -130.74, 136.17 -126.52 M149.63 -134.59 C145.95 -133.01, 143.55 -130.63, 137 -127.2 M137.33 -127.09 C136.54 -130.31, 135.47 -132.45, 135.23 -139.92 M136.32 -127.2 C136.64 -130.45, 136.91 -133.75, 135.4 -140.25 M136.66 -139.15 C138.59 -138.09, 143.18 -138.29, 148.69 -136.43 M135.44 -140.28 C140.46 -137.99, 145.81 -136.8, 150.26 -134.67 M149.78 -135.2 C149.78 -135.2, 149.78 -135.2, 149.78 -135.2 M149.78 -135.2 C149.78 -135.2, 149.78 -135.2, 149.78 -135.2" stroke="#2b8a3e" stroke-width="1" fill="none"></path></g></g><mask></mask><g transform="translate(220.49472843992157 221.50340768173044) rotate(0 8 12.5)"><text x="0" y="18" font-family="Virgil, Segoe UI Emoji" font-size="20px" fill="#2b8a3e" text-anchor="start" style="white-space: pre;" direction="ltr">2</text></g><g transform="translate(308.36975536001705 212.41152964071296) rotate(0 7.5 12.5)"><text x="0" y="18" font-family="Virgil, Segoe UI Emoji" font-size="20px" fill="#2b8a3e" text-anchor="start" style="white-space: pre;" direction="ltr">4</text></g><g stroke-linecap="round"><g transform="translate(434.0685981191606 280.89855491958235) rotate(180 -75.04491331309237 -73.14736043360134)"><path d="M0.88 0.64 C-6.43 -19.85, -18.89 -97.54, -44.03 -121.83 C-69.17 -146.12, -132.31 -141.15, -149.96 -145.11 M-0.11 -0.07 C-7.58 -19.84, -19.95 -95.81, -45.1 -120.29 C-70.24 -144.77, -133.5 -142.33, -150.97 -146.94" stroke="#2b8a3e" stroke-width="1" fill="none"></path></g><g transform="translate(434.0685981191606 280.89855491958235) rotate(180 -75.04491331309237 -73.14736043360134)"><path d="M-151.15 -145.29 L-137.17 -149.77 L-137.99 -139.37 L-151.64 -148.11" stroke="none" stroke-width="0" fill="#2b8a3e" fill-rule="evenodd"></path><path d="M-150.17 -147.21 C-146.95 -148.95, -141.64 -150.26, -136.09 -150.66 M-150.82 -146.37 C-146.44 -147.91, -142.47 -150.08, -136.09 -151.06 M-136.55 -152.32 C-136.43 -147.72, -137.23 -143.38, -139.37 -138.59 M-136.1 -150.99 C-136.35 -148.98, -137.17 -146.18, -138.62 -139.24 M-137.22 -138.12 C-143.32 -143.01, -148.78 -144.23, -150.11 -148.09 M-137.71 -138.43 C-141.64 -140.61, -144.45 -143.68, -151.19 -147.32 M-150.97 -146.94 C-150.97 -146.94, -150.97 -146.94, -150.97 -146.94 M-150.97 -146.94 C-150.97 -146.94, -150.97 -146.94, -150.97 -146.94" stroke="#2b8a3e" stroke-width="1" fill="none"></path></g></g><mask></mask><g transform="translate(273.5689931163763 264.62041384333634) rotate(0 7 12.5)"><text x="0" y="18" font-family="Virgil, Segoe UI Emoji" font-size="20px" fill="#2b8a3e" text-anchor="start" style="white-space: pre;" direction="ltr">5</text></g><g transform="translate(215.7499999999999 10) rotate(0 96 13)"><text x="0" y="18" font-family="Virgil, Segoe UI Emoji" font-size="20px" fill="#495057" text-anchor="start" style="white-space: pre;" direction="ltr">Public STUN server</text></g><g stroke-linecap="round" transform="translate(132.2499999999999 241) rotate(0 23.5 32.75)"><path d="M0 0 C0 0, 0 0, 0 0 M0 0 C0 0, 0 0, 0 0 M-0.93 7.05 C1.55 4.2, 2.57 3.2, 4.64 0.37 M-0.13 6.12 C0.47 4.88, 1.5 4.2, 4.85 0.25 M-0.97 11.84 C2.41 8.86, 5.62 7.81, 11.61 -0.54 M-0.53 11.49 C2.65 8.98, 5.7 4.48, 9.91 -0.13 M-1.09 19.91 C5.03 10.43, 12.57 2.95, 14.72 0.74 M-0.56 17.45 C5.94 11.85, 10.63 6.1, 15.85 0.66 M1.42 22.13 C4.02 17.37, 9.47 10.47, 20.21 1.49 M0.32 24.67 C6.55 17.81, 12.27 10.95, 21.13 -1.05 M-1.22 28.74 C5.28 23.4, 8.96 18.35, 26.94 1.52 M0.62 30.27 C7.51 22.36, 12.79 16.08, 25.83 0.54 M-0.81 35.77 C8.25 25.78, 19.31 11.75, 31.36 0.26 M-0.24 37.62 C8.32 28.4, 15.83 19.68, 32.85 -0.63 M2.08 41.79 C8.21 33.93, 13.94 24.93, 36.04 1.17 M-0.83 43.22 C10.04 30.77, 21.26 19.03, 37.73 0.23 M1.65 48.64 C9.27 35.74, 22.78 23.45, 44.42 0.2 M-0.42 49.7 C12.33 32.76, 26.43 19.09, 43.12 -0.45 M0.94 54.63 C17.98 35.17, 34.65 14.33, 49.04 -1.64 M0.82 55.26 C16 35.89, 31.98 19.2, 46.82 0.11 M0.14 59.15 C14.15 43.96, 29.86 28.25, 48.39 4.91 M-0.1 60.53 C10.3 50.89, 20.63 39.18, 46.36 6.61 M-0.09 66.3 C10.04 53.37, 22.33 42.6, 46.19 12.09 M0.07 66.45 C17.38 47.6, 34.85 26.71, 48.02 12.51 M4.33 66.45 C19.91 51.38, 30.04 37.73, 47.2 17.93 M5.52 66.08 C17.15 54.61, 27.18 41.05, 48.36 19.22 M11.8 66.28 C21.52 53.49, 31.49 39.47, 47.86 26.22 M12.05 64.9 C21.54 55.89, 30.51 43.83, 46.68 24.24 M16.42 66.22 C29.33 52.44, 41.66 40.16, 47.85 31.27 M16.16 66.49 C26.57 55.11, 36.64 42.68, 48.28 30.18 M21.5 66.94 C28.37 59.64, 35.08 52.21, 45.62 38.66 M22.36 67.28 C29.12 56.16, 38.25 48, 47.76 37.79 M27.09 66.16 C33.6 59.21, 41.17 48.69, 48.47 42.48 M26.38 65.56 C34.5 57.29, 41.43 49.88, 46.85 43.42 M33.47 67.34 C36.24 61.25, 44.95 52.51, 48.82 49.85 M32.53 66.51 C34.75 63.37, 39.38 58.07, 46.4 49.8 M38.91 65.3 C42.28 61.91, 45.06 59.72, 46.53 54.55 M37.6 65.79 C41.65 61.32, 44.41 57.5, 46.51 55.53 M42.58 65.96 C45.24 64.3, 45.97 62.46, 47.41 60.67 M42.68 66.18 C43.88 64.97, 44.95 63.81, 47.85 61.48" stroke="#40c057" stroke-width="0.5" fill="none"></path><path d="M-0.78 1.65 C15.86 0.83, 34.44 -0.41, 48.62 -1.21 M0.32 0.75 C14.22 0.45, 30.83 0.09, 47.53 0.09 M46.23 0.75 C45.84 18.72, 47.25 39.59, 48.77 65.65 M46.51 0.22 C46.96 25.38, 47.22 52.57, 47.83 65.24 M45.54 63.85 C30.41 66.53, 10.79 64.65, 0.32 65.42 M47.64 66.2 C28.87 65.2, 11.54 65.51, 0.33 64.67 M0.02 65.15 C-0.69 48.84, -0.1 31.95, 1.28 1.92 M-0.58 64.99 C-0.67 46.64, 0.55 28.42, 0.82 -0.23" stroke="#2b8a3e" stroke-width="1" fill="none"></path></g><g stroke-linecap="round" transform="translate(375.7499999999999 249.25) rotate(0 23.5 32.75)"><path d="M0 0 C0 0, 0 0, 0 0 M0 0 C0 0, 0 0, 0 0 M0.39 6.92 C0.47 5.03, 2.4 2.71, 5 -0.36 M-0.54 6.08 C1.54 3.64, 4.16 1.54, 4.87 0.02 M-0.06 11.97 C1.8 10.42, 5.58 7.91, 10.13 -0.32 M-0.42 11.67 C4.22 7.53, 6.88 2.77, 10.54 0.67 M1.35 17.34 C2.4 14.84, 5.44 9.6, 16.03 1.3 M-1.11 19.09 C5.03 12.13, 11.02 6.29, 15.95 -0.19 M-1.68 22.67 C6.28 15.05, 12.09 7.47, 22.82 -0.48 M0.86 24.67 C8.5 15.56, 16.16 6.06, 20.28 -1.03 M-1.74 30.43 C7.36 19.42, 16.73 12.33, 27.47 -0.6 M-0.21 31.09 C5.78 22.41, 13.39 15.7, 26.5 0.45 M-1.36 35.14 C9.09 26.04, 15.51 16.23, 32.25 -1.23 M0.49 37.39 C7.92 28.26, 15.86 20.24, 31.36 -0.92 M-0.59 43 C15.46 23.5, 30.33 7.62, 37.79 -0.26 M0.84 42.36 C11.13 31.04, 22.11 18.09, 36.85 -0.26 M-0.4 47.74 C11.96 35.22, 24.95 20.35, 42.86 0.12 M0.65 48.07 C12.17 33.9, 26.93 19.52, 42.21 0.56 M0.34 54.8 C15.08 37.59, 28.45 23.44, 45.64 0.96 M0.97 53.82 C9.45 42.72, 20.55 31.8, 47.4 0.17 M-1.8 60.86 C10.33 49.63, 21.93 36.04, 45.54 4.86 M-0.42 61.44 C17.42 43.52, 33.13 23.56, 47.23 5.74 M1.51 64.59 C10.6 55.04, 21.82 40.17, 47.47 13.53 M1.66 65.73 C20.63 45.71, 37.5 24.62, 47.89 12.38 M6.29 67.1 C17.5 51.49, 30.15 39.91, 46.65 17.75 M5.92 66.78 C18.81 52.36, 29.65 39.11, 47.94 18.75 M12.15 65.07 C25.7 48.26, 38.01 34.91, 48.28 24.26 M10.78 66.68 C24.99 51.8, 36.15 36.21, 46.3 25.76 M16.72 67.11 C22.81 60.32, 30.39 51.09, 48.08 31.52 M17 65.81 C29.28 52.26, 40.47 40.57, 46.99 30.09 M22.08 67.32 C31.14 57.19, 40.1 43.4, 48.81 37.52 M22.41 66.02 C30.5 55.51, 41.56 44.39, 47.94 37.66 M27.33 65.04 C33.57 59.79, 36.26 55.76, 47.39 43.94 M26.73 66.16 C34.24 57.49, 42.61 48.59, 48.32 43.66 M33.14 64.6 C38.93 61.46, 42.07 56.16, 48.09 47.71 M32.31 65.63 C38.76 60.31, 43.05 52.56, 48.05 49.78 M37.14 67.11 C40.46 63.17, 45 58.83, 46.14 56.74 M37.62 66.24 C39.7 62.64, 42.44 59.82, 47.11 56.03 M42.42 67.06 C43.94 64.72, 45.26 63.59, 47 60.84 M42.64 66.23 C43.88 64.9, 45.16 64.28, 47.82 61.2" stroke="#40c057" stroke-width="0.5" fill="none"></path><path d="M1.65 -0.75 C14.06 1.4, 26.06 1.8, 45.79 0.41 M0.75 -0.85 C18.5 0.54, 35.8 0.38, 47.09 0.13 M47.75 -0.78 C45.62 16.46, 46 33.42, 47.15 67.43 M47.22 -0.65 C47.03 25.33, 48.25 52.27, 46.74 66.19 M45.35 66.25 C31.3 63.62, 12.59 65.47, -0.08 66.94 M47.7 64.84 C29.06 65.29, 11.71 66.14, -0.83 65.01 M-0.35 64.43 C-0.73 49.19, -1.17 35.12, 1.92 -0.35 M-0.51 65.11 C0.1 43.82, 0.38 21.28, -0.23 0.9" stroke="#2b8a3e" stroke-width="1" fill="none"></path></g></svg>